<?xml version="1.0" standalone="no"?>
<!DOCTYPE svg PUBLIC "-//W3C//DTD SVG 20010904//EN"
 "http://www.w3.org/TR/2001/REC-SVG-20010904/DTD/svg10.dtd">
<svg version="1.0" xmlns="http://www.w3.org/2000/svg"
 width="528.000000pt" height="528.000000pt" viewBox="0 0 528.000000 528.000000"
 preserveAspectRatio="xMidYMid meet">
<metadata>
Created by potrace 1.11, written by Peter Selinger 2001-2013
</metadata>
<g transform="translate(0.000000,528.000000) scale(0.100000,-0.100000)"
fill="#000000" stroke="none">
<path d="M185 5263 c-45 -24 -83 -62 -105 -109 -21 -41 -21 -51 -17 -1510 1
-808 6 -1480 10 -1494 4 -14 9 -45 12 -70 5 -48 11 -82 19 -108 3 -9 8 -28 10
-42 3 -14 10 -43 14 -65 24 -110 102 -316 180 -470 41 -83 167 -294 182 -305
4 -3 21 -25 38 -49 79 -109 286 -328 387 -407 28 -21 52 -41 55 -44 50 -52
422 -288 465 -294 7 -1 19 -7 26 -13 34 -28 286 -122 444 -167 83 -23 108 -29
175 -42 14 -2 49 -9 78 -15 147 -29 312 -43 517 -42 136 1 189 4 295 19 19 2
49 6 65 8 27 4 106 17 188 32 15 3 51 12 80 20 29 8 63 17 77 20 108 24 390
133 520 202 65 35 226 129 245 144 53 41 107 78 114 78 5 0 11 3 13 8 2 4 23
23 48 42 135 106 420 396 420 428 0 6 4 12 9 14 12 5 131 173 131 187 0 6 4
11 8 11 5 0 19 22 32 50 13 27 27 50 32 50 4 0 8 8 8 19 0 10 7 24 15 31 8 7
15 16 15 21 0 5 13 36 29 68 16 33 26 62 23 65 -3 4 0 6 6 6 7 0 12 5 12 11 0
6 16 53 35 104 54 144 91 299 121 505 17 114 9 500 -13 615 -3 17 -7 39 -8 51
-3 25 -52 214 -61 238 -4 10 -1 16 7 16 8 0 31 5 52 11 l37 10 0 1009 c0 1009
0 1009 -21 1047 -51 91 -153 132 -276 110 -24 -4 -43 -12 -43 -17 0 -6 -6 -10
-12 -10 -7 0 -40 -25 -73 -56 -33 -31 -109 -102 -169 -158 -60 -55 -130 -121
-157 -146 -64 -61 -245 -230 -348 -326 -47 -44 -105 -98 -129 -121 l-44 -41
-44 19 c-24 10 -65 29 -91 40 -55 24 -259 99 -286 104 -9 2 -21 6 -25 9 -5 3
-19 7 -33 9 -13 3 -60 14 -105 26 -44 11 -98 23 -119 27 -20 3 -47 8 -59 10
-53 11 -83 15 -125 19 -25 2 -46 5 -46 5 0 8 -244 23 -370 23 -117 0 -305 -9
-355 -17 -14 -3 -50 -7 -81 -11 -31 -3 -67 -8 -80 -11 -13 -2 -39 -7 -58 -10
-45 -7 -51 -9 -156 -33 -113 -27 -107 -25 -190 -52 -38 -12 -74 -23 -80 -25
-22 -4 -199 -76 -255 -103 l-60 -30 -87 82 c-47 45 -100 96 -118 112 -17 17
-91 86 -164 155 -74 69 -159 150 -190 180 -82 79 -311 294 -341 320 -14 12
-35 26 -48 31 -39 15 -174 10 -207 -8z"/>
</g>
</svg>
