<svg xmlns="http://www.w3.org/2000/svg" id="equipment-ball-svg" viewBox="0 0 16 16">
  <path fill="currentColor" d="M14.5 13h-4A7 7 0 107 14h7.5a.5.5 0 010 1H8a.5.5 0 100 1h6.5a1.5 1.5 0 100-3zM7 13h-.8l5.1-3 .7.4a6 6 0 01-5 2.7zm-3.4-1l5.6-3.2 1.2.7L5 12.7a6 6 0 01-1.3-.7zm-.5-9.7a6 6 0 011.3-.8V8L3 8.7V2.3zm2.2-1.1A6 6 0 016.5 1v5.7l-1.2.7V1.2zM13 7v.4L7.4 4.2V2.8L13 6v1zM7.5 5.3l5.4 3.1a6 6 0 01-.4 1.2l-5-2.9V5.3zm5-.6l-5-3V1a6 6 0 015 3.7zM2.3 3.3v6l-.7.3a6 6 0 01.7-6.3zM2 10.4l5-2.9 1.2.8-5.4 3c-.3-.2-.6-.5-.8-.9z"/>
</svg>