<svg xmlns="http://www.w3.org/2000/svg" id="equipment-tower-svg" viewBox="0 0 14 16">
  <path fill="currentColor" d="M13.2 13.6H9V2.4h1.7v4.4c-.5.1-.9.6-.9 1.2 0 .7.5 1.2 1.1 1.2.7 0 1.2-.5 1.2-1.2 0-.6-.4-1-1-1.2V2.4h1.6c.4 0 .7-.4.7-.8V.8c0-.4-.3-.8-.7-.8H1.4C1 0 .7.4.7.8v.8c0 .4.3.8.7.8h3.7v11.2H.8c-.5 0-.8.4-.8.8v.8c0 .4.3.8.8.8h12.4c.5 0 .8-.4.8-.8v-.8c0-.4-.3-.8-.8-.8zM11.5 8c0 .4-.3.7-.7.7a.7.7 0 01-.6-.7c0-.4.3-.7.6-.7.4 0 .7.3.7.7zm-10-6.4V.8l.3-.2h10.6c.2 0 .3 0 .3.2v.8c0 .1-.1.2-.3.2H1.8c-.1 0-.4 0-.4-.2zm4.2 10.2H6s.3-.1.3-.3l-.3-.2h-.3V9.4h2.6c.1 0 1-.1.3-.3.7-.1-.2-.2-.3-.2H5.7V7.1H8c.1 0-.3-.1-.3-.3l.3-.2H5.7V2.4h2.6v1.8H5.5c-.1 0 0 0 0 .1l-.1.4h3v1.9H8c-.1 0-.3 0-.3.2s.2.3.3.3h.3v4.2H6c-.1 0 .3 0 .3.2s-.4.3-.3.3h2.3v1.8H5.7v-1.8zm7.7 3.4l-.4.2H1c-.2 0-.4 0-.4-.2v-.8l.3-.2h12.2c.2 0 .3 0 .3.2v.8z"/>
</svg>