<svg xmlns="http://www.w3.org/2000/svg" id="equipment-tray-svg" viewBox="0 0 16 12">
  <path fill="currentColor" d="M16 3.4c-.1-2-1.5-3.4-3.3-3.4H3.3C1.5 0 0 1.5 0 3.4v7c0 .9.7 1.6 1.5 1.6h13c.8 0 1.5-.7 1.5-1.6v-7zM3.3.8h9.4c1.3 0 2.3 1 2.6 2.2h-.8a2 2 0 00-1.8-1.5H8.1c-.1 0 .4.2.4.4s-.5.3-.4.3h4.6c.5 0 1 .4 1.1.8h-.3c-1 0-1.6.7-1.7 1.7a12 12 0 00-7.6 0c0-1-.8-1.7-1.7-1.7h-.3c.2-.4.6-.8 1-.8h5c.1 0 .3-.1.3-.3 0-.2-.2-.4-.4-.4H3.3A2 2 0 001.5 3H.7A2.7 2.7 0 013.3.8zm8.5 4.7v1.2c0 .6-.4 1-1 1H5.2c-.5 0-1-.4-1-1V5.5c2.5-1 5.3-1 7.7 0zm3.5 4.9c0 .5-.4.8-.8.8h-13c-.4 0-.8-.3-.8-.8V3.8h1.8c.6 0 1 .4 1 1v2c0 .9.7 1.7 1.6 1.7h6.3c.4 0 1.1-.5 1.1-1.8v-2c0-.5.4-1 1-1h1.8v6.7z"/>
</svg>