<svg xmlns="http://www.w3.org/2000/svg" fill="none" id="paw-svg" viewBox="0 0 21 18">
  <path fill="currentColor" d="M16.5 6.9c-2.9 1.6-2.5 6.2.6 6.3 1.3 0 2.4-1 3-2.2 1.2-2.9-1.2-5.4-3.6-4.1zM13.6 7.4c3.3 0 4.4-5.6 1.3-6.6-1.5-.4-3.2.6-3.7 2.4-.6 2.1.5 4.2 2.4 4.2z"/>
  <path fill="currentColor" d="M12.5 17.6c-.4-.2-1.2-.3-2.1-.3-1 0-1.9 0-2.5.2-1.7.4-4-.7-3.4-3 .5-2.2 2.1-2 2.6-4.1.4-2.1 2-3 3.5-3 1.3.1 2.7 1.1 3 3 .4 2.1 2 2 2.4 4.2.5 2.4-1.8 3.5-3.5 3zM7.7 7.3c1 0 1.7-.5 2.2-1.3 1.4-2.5-.8-6-3.3-5.3-3.2.8-2.3 6.6 1 6.6z"/>
  <path fill="currentColor" d="M6 11.1c1.2-2.6-1.3-5.8-3.8-4.9-3 1.2-1.7 6.5 1.5 6.5 1 0 2-.6 2.4-1.6zM12.5 17.6c-.4-.2-1.2-.3-2.1-.3l.2-9.9c1.3.1 2.7 1.1 3 3 .4 2.1 2 2 2.4 4.2.5 2.4-1.8 3.5-3.5 3z"/>
</svg>