<?xml version="1.0" encoding="utf-8"?><svg xmlns="http://www.w3.org/2000/svg" xmlns:xlink="http://www.w3.org/1999/xlink"><symbol fill="none" viewBox="0 0 14 8" id="accord-down-svg" xmlns="http://www.w3.org/2000/svg"><path stroke="currentColor" stroke-linecap="round" stroke-linejoin="round" stroke-width="2" d="M1 1l6 6 6-6"/></symbol><symbol fill="none" viewBox="0 0 11 8" id="check-svg" xmlns="http://www.w3.org/2000/svg"><path stroke="currentColor" stroke-linecap="round" stroke-linejoin="round" d="M1 3.3L4.5 7 10 1"/></symbol><symbol viewBox="0 0 16 16" id="equipment-ball-svg" xmlns="http://www.w3.org/2000/svg"><path fill="currentColor" d="M14.5 13h-4A7 7 0 107 14h7.5a.5.5 0 010 1H8a.5.5 0 100 1h6.5a1.5 1.5 0 100-3zM7 13h-.8l5.1-3 .7.4a6 6 0 01-5 2.7zm-3.4-1l5.6-3.2 1.2.7L5 12.7a6 6 0 01-1.3-.7zm-.5-9.7a6 6 0 011.3-.8V8L3 8.7V2.3zm2.2-1.1A6 6 0 016.5 1v5.7l-1.2.7V1.2zM13 7v.4L7.4 4.2V2.8L13 6v1zM7.5 5.3l5.4 3.1a6 6 0 01-.4 1.2l-5-2.9V5.3zm5-.6l-5-3V1a6 6 0 015 3.7zM2.3 3.3v6l-.7.3a6 6 0 01.7-6.3zM2 10.4l5-2.9 1.2.8-5.4 3c-.3-.2-.6-.5-.8-.9z"/></symbol><symbol viewBox="0 0 16 16" id="equipment-empty-svg" xmlns="http://www.w3.org/2000/svg"><path fill="currentColor" d="M16 7.9c0 2-.8 4-2.3 5.5a8 8 0 01-9.9 1.2l1-1a6.8 6.8 0 0010-5.7c0-1.2-.4-2.3-.9-3.2l1-1A7.7 7.7 0 0116 8zM1 15.7l-1-.9L2 13a7.7 7.7 0 01.3-10.7A8 8 0 018 0c2 0 3.8.7 5.2 1.9L15.1 0l.9.9L1 15.7zm1.8-3.6l9.5-9.3a6.8 6.8 0 00-11 5c0 1.7.5 3.2 1.5 4.3z"/></symbol><symbol viewBox="0 0 16 16" id="equipment-house-svg" xmlns="http://www.w3.org/2000/svg"><path d="M15.863 7.167L9.189.492A1.67 1.67 0 008 0c-.45 0-.871.175-1.188.492L.137 7.167a.468.468 0 000 .663l.503.501c.53.531 1.26.656 1.87.477v6.723c0 .26.21.469.47.469h10.04c.26 0 .47-.21.47-.469V8.808c.61.18 1.34.054 1.87-.477l.503-.501a.47.47 0 000-.663zm-3.31 1.027v4.86h-2.076v-3.046A2.475 2.475 0 008 7.531a2.475 2.475 0 00-2.477 2.477v3.046H3.448v-4.86L8 3.642l4.552 4.552zm-9.105 5.798h2.075v1.07H3.448v-1.07zm3.012 1.07v-5.054a1.538 1.538 0 113.08 0v5.055H6.46zm4.017 0v-1.07h2.075v1.07h-2.075zm4.22-7.393a.95.95 0 01-1.345 0l-.009-.01-5.012-5.011a.469.469 0 00-.662 0L2.657 7.66a.95.95 0 01-1.354.009l-.171-.171 6.343-6.343c.29-.29.76-.29 1.05 0l6.343 6.343-.17.17z" fill="currentColor"/></symbol><symbol viewBox="0 0 14 16" id="equipment-tower-svg" xmlns="http://www.w3.org/2000/svg"><path fill="currentColor" d="M13.2 13.6H9V2.4h1.7v4.4c-.5.1-.9.6-.9 1.2 0 .7.5 1.2 1.1 1.2.7 0 1.2-.5 1.2-1.2 0-.6-.4-1-1-1.2V2.4h1.6c.4 0 .7-.4.7-.8V.8c0-.4-.3-.8-.7-.8H1.4C1 0 .7.4.7.8v.8c0 .4.3.8.7.8h3.7v11.2H.8c-.5 0-.8.4-.8.8v.8c0 .4.3.8.8.8h12.4c.5 0 .8-.4.8-.8v-.8c0-.4-.3-.8-.8-.8zM11.5 8c0 .4-.3.7-.7.7a.7.7 0 01-.6-.7c0-.4.3-.7.6-.7.4 0 .7.3.7.7zm-10-6.4V.8l.3-.2h10.6c.2 0 .3 0 .3.2v.8c0 .1-.1.2-.3.2H1.8c-.1 0-.4 0-.4-.2zm4.2 10.2H6s.3-.1.3-.3l-.3-.2h-.3V9.4h2.6c.1 0 1-.1.3-.3.7-.1-.2-.2-.3-.2H5.7V7.1H8c.1 0-.3-.1-.3-.3l.3-.2H5.7V2.4h2.6v1.8H5.5c-.1 0 0 0 0 .1l-.1.4h3v1.9H8c-.1 0-.3 0-.3.2s.2.3.3.3h.3v4.2H6c-.1 0 .3 0 .3.2s-.4.3-.3.3h2.3v1.8H5.7v-1.8zm7.7 3.4l-.4.2H1c-.2 0-.4 0-.4-.2v-.8l.3-.2h12.2c.2 0 .3 0 .3.2v.8z"/></symbol><symbol viewBox="0 0 16 12" id="equipment-tray-svg" xmlns="http://www.w3.org/2000/svg"><path fill="currentColor" d="M16 3.4c-.1-2-1.5-3.4-3.3-3.4H3.3C1.5 0 0 1.5 0 3.4v7c0 .9.7 1.6 1.5 1.6h13c.8 0 1.5-.7 1.5-1.6v-7zM3.3.8h9.4c1.3 0 2.3 1 2.6 2.2h-.8a2 2 0 00-1.8-1.5H8.1c-.1 0 .4.2.4.4s-.5.3-.4.3h4.6c.5 0 1 .4 1.1.8h-.3c-1 0-1.6.7-1.7 1.7a12 12 0 00-7.6 0c0-1-.8-1.7-1.7-1.7h-.3c.2-.4.6-.8 1-.8h5c.1 0 .3-.1.3-.3 0-.2-.2-.4-.4-.4H3.3A2 2 0 001.5 3H.7A2.7 2.7 0 013.3.8zm8.5 4.7v1.2c0 .6-.4 1-1 1H5.2c-.5 0-1-.4-1-1V5.5c2.5-1 5.3-1 7.7 0zm3.5 4.9c0 .5-.4.8-.8.8h-13c-.4 0-.8-.3-.8-.8V3.8h1.8c.6 0 1 .4 1 1v2c0 .9.7 1.7 1.6 1.7h6.3c.4 0 1.1-.5 1.1-1.8v-2c0-.5.4-1 1-1h1.8v6.7z"/></symbol><symbol fill="none" viewBox="0 0 67 50" id="logo" xmlns="http://www.w3.org/2000/svg"><path d="M49.5 1.33v12.207c-.504-1-1.174-1.909-1.953-2.742-1.593-1.704-3.657-3.106-5.72-4.349l6.09-5.69A.972.972 0 0148.943.57c.337.13.557.41.557.76z" fill="#FF7236"/><path d="M49.5 1.33v12.207c-.504-1-1.174-1.909-1.953-2.742-1.593-1.704-3.657-3.106-5.72-4.349l6.09-5.69A.972.972 0 0148.943.57c.337.13.557.41.557.76z" stroke="#fff"/><path d="M49.5 1.33v12.207c-.504-1-1.174-1.909-1.953-2.742-1.593-1.704-3.657-3.106-5.72-4.349l6.09-5.69A.972.972 0 0148.943.57c.337.13.557.41.557.76z" stroke="url(#hpaint0_linear)"/><path d="M49.5 1.33v12.207c-.504-1-1.174-1.909-1.953-2.742-1.593-1.704-3.657-3.106-5.72-4.349l6.09-5.69A.972.972 0 0148.943.57c.337.13.557.41.557.76z" stroke="url(#hpaint1_linear)"/><path d="M49.5 1.33v12.207c-.504-1-1.174-1.909-1.953-2.742-1.593-1.704-3.657-3.106-5.72-4.349l6.09-5.69A.972.972 0 0148.943.57c.337.13.557.41.557.76z" stroke="url(#hpaint2_linear)"/><path d="M49.5 1.33v12.207c-.504-1-1.174-1.909-1.953-2.742-1.593-1.704-3.657-3.106-5.72-4.349l6.09-5.69A.972.972 0 0148.943.57c.337.13.557.41.557.76z" stroke="url(#hpaint3_linear)"/><path d="M49.5 17.747c0 7.948-6.907 14.449-15.5 14.449s-15.5-6.5-15.5-14.45c0-7.908 6.863-13.514 15.5-13.514 8.638 0 15.5 5.606 15.5 13.515z" fill="#FFAA50"/><path d="M49.5 17.747c0 7.948-6.907 14.449-15.5 14.449s-15.5-6.5-15.5-14.45c0-7.908 6.863-13.514 15.5-13.514 8.638 0 15.5 5.606 15.5 13.515z" stroke="#fff"/><path d="M49.5 17.747c0 7.948-6.907 14.449-15.5 14.449s-15.5-6.5-15.5-14.45c0-7.908 6.863-13.514 15.5-13.514 8.638 0 15.5 5.606 15.5 13.515z" stroke="url(#hpaint4_linear)"/><path d="M49.5 17.747c0 7.948-6.907 14.449-15.5 14.449s-15.5-6.5-15.5-14.45c0-7.908 6.863-13.514 15.5-13.514 8.638 0 15.5 5.606 15.5 13.515z" stroke="url(#hpaint5_linear)"/><path d="M49.5 17.747c0 7.948-6.907 14.449-15.5 14.449s-15.5-6.5-15.5-14.45c0-7.908 6.863-13.514 15.5-13.514 8.638 0 15.5 5.606 15.5 13.515z" stroke="url(#hpaint6_linear)"/><path d="M49.5 17.747c0 7.948-6.907 14.449-15.5 14.449s-15.5-6.5-15.5-14.45c0-7.908 6.863-13.514 15.5-13.514 8.638 0 15.5 5.606 15.5 13.515z" stroke="url(#hpaint7_linear)"/><path d="M25.595 5.907l.252.235.309-.151c2.3-1.124 4.973-1.759 7.844-1.759.291 0 .58.007.867.02-4.924 2.056-8.367 7.06-8.367 13.495 0 6.532 3.553 12.165 8.63 14.41-.373.025-.75.038-1.13.038-8.593 0-15.5-6.5-15.5-14.448V1.329c0-.349.22-.629.557-.759a.972.972 0 011.026.187l5.512 5.15z" fill="#FF7236"/><path d="M25.595 5.907l.252.235.309-.151c2.3-1.124 4.973-1.759 7.844-1.759.291 0 .58.007.867.02-4.924 2.056-8.367 7.06-8.367 13.495 0 6.532 3.553 12.165 8.63 14.41-.373.025-.75.038-1.13.038-8.593 0-15.5-6.5-15.5-14.448V17.722v0-.002 0-.002 0-.002 0-.002 0-.002 0-.001 0-.002 0-.002 0-.002 0-.002 0-.001 0-.002 0-.002 0-.002 0-.001 0-.002 0-.002 0-.002 0-.001 0-.002 0-.002 0-.001 0-.002 0-.002 0-.002 0-.001 0-.002 0-.001 0-.002 0-.002 0-.001 0-.002 0-.002 0-.001 0-.002 0-.001 0-.002 0-.002 0-.001 0-.002 0-.001 0-.002 0-.001 0-.002 0-.001 0-.002 0-.001 0-.002 0-.001 0-.002 0-.001 0-.002 0-.001 0-.002 0-.001 0-.002 0-.001 0-.002 0-.002 0-.002 0-.001 0-.002 0-.002 0-.002 0-.001 0-.001 0-.002 0-.001 0-.001 0-.002 0-.001 0-.001 0-.002 0-.002 0-.001 0-.002 0-.002 0-.001 0-.002 0-.002 0-.001 0-.002 0-.001 0-.002 0-.001 0-.002 0-.001 0-.001 0-.002 0-.001 0-.001 0-.001 0-.002 0-.001 0-.001 0-.001 0-.001 0-.001 0-.002 0-.001 0-.001 0-.001 0-.001 0-.001 0-.001 0-.001 0-.001 0-.001 0-.001 0-.001 0-.001 0-.001 0-.001 0-.001 0-.001 0-.001 0-.001 0-.001 0-.001 0-.001 0-.001 0-.001 0-.001 0-.001 0-.001 0-.001 0-.001 0-.001 0-.001 0-.001 0-.001 0-.001 0-.001 0-.001 0-.001 0-.001 0-.001 0-.001 0-.001 0-.001 0-.001 0-.001 0-.001 0-.001 0-.001 0-.001 0-.001 0-.001 0-.001 0-.001 0-.001 0-.001 0-.001 0-.001 0-.001 0-.001 0-.001 0-.001 0-.001 0-.001 0-.001 0-.001 0-.001 0-.001 0-.001 0-.001 0-.001 0-.001 0-.001 0V1.329c0-.349.22-.629.557-.759a.972.972 0 011.026.187l5.512 5.15z" stroke="#fff"/><path d="M25.595 5.907l.252.235.309-.151c2.3-1.124 4.973-1.759 7.844-1.759.291 0 .58.007.867.02-4.924 2.056-8.367 7.06-8.367 13.495 0 6.532 3.553 12.165 8.63 14.41-.373.025-.75.038-1.13.038-8.593 0-15.5-6.5-15.5-14.448V17.722v0-.002 0-.002 0-.002 0-.002 0-.002 0-.001 0-.002 0-.002 0-.002 0-.002 0-.001 0-.002 0-.002 0-.002 0-.001 0-.002 0-.002 0-.002 0-.001 0-.002 0-.002 0-.001 0-.002 0-.002 0-.002 0-.001 0-.002 0-.001 0-.002 0-.002 0-.001 0-.002 0-.002 0-.001 0-.002 0-.001 0-.002 0-.002 0-.001 0-.002 0-.001 0-.002 0-.001 0-.002 0-.001 0-.002 0-.001 0-.002 0-.001 0-.002 0-.001 0-.002 0-.001 0-.002 0-.001 0-.002 0-.001 0-.002 0-.002 0-.002 0-.001 0-.002 0-.002 0-.002 0-.001 0-.001 0-.002 0-.001 0-.001 0-.002 0-.001 0-.001 0-.002 0-.002 0-.001 0-.002 0-.002 0-.001 0-.002 0-.002 0-.001 0-.002 0-.001 0-.002 0-.001 0-.002 0-.001 0-.001 0-.002 0-.001 0-.001 0-.001 0-.002 0-.001 0-.001 0-.001 0-.001 0-.001 0-.002 0-.001 0-.001 0-.001 0-.001 0-.001 0-.001 0-.001 0-.001 0-.001 0-.001 0-.001 0-.001 0-.001 0-.001 0-.001 0-.001 0-.001 0-.001 0-.001 0-.001 0-.001 0-.001 0-.001 0-.001 0-.001 0-.001 0-.001 0-.001 0-.001 0-.001 0-.001 0-.001 0-.001 0-.001 0-.001 0-.001 0-.001 0-.001 0-.001 0-.001 0-.001 0-.001 0-.001 0-.001 0-.001 0-.001 0-.001 0-.001 0-.001 0-.001 0-.001 0-.001 0-.001 0-.001 0-.001 0-.001 0-.001 0-.001 0-.001 0-.001 0-.001 0-.001 0-.001 0-.001 0-.001 0-.001 0-.001 0-.001 0-.001 0-.001 0V1.329c0-.349.22-.629.557-.759a.972.972 0 011.026.187l5.512 5.15z" stroke="url(#hpaint8_linear)"/><path d="M25.595 5.907l.252.235.309-.151c2.3-1.124 4.973-1.759 7.844-1.759.291 0 .58.007.867.02-4.924 2.056-8.367 7.06-8.367 13.495 0 6.532 3.553 12.165 8.63 14.41-.373.025-.75.038-1.13.038-8.593 0-15.5-6.5-15.5-14.448V17.722v0-.002 0-.002 0-.002 0-.002 0-.002 0-.001 0-.002 0-.002 0-.002 0-.002 0-.001 0-.002 0-.002 0-.002 0-.001 0-.002 0-.002 0-.002 0-.001 0-.002 0-.002 0-.001 0-.002 0-.002 0-.002 0-.001 0-.002 0-.001 0-.002 0-.002 0-.001 0-.002 0-.002 0-.001 0-.002 0-.001 0-.002 0-.002 0-.001 0-.002 0-.001 0-.002 0-.001 0-.002 0-.001 0-.002 0-.001 0-.002 0-.001 0-.002 0-.001 0-.002 0-.001 0-.002 0-.001 0-.002 0-.001 0-.002 0-.002 0-.002 0-.001 0-.002 0-.002 0-.002 0-.001 0-.001 0-.002 0-.001 0-.001 0-.002 0-.001 0-.001 0-.002 0-.002 0-.001 0-.002 0-.002 0-.001 0-.002 0-.002 0-.001 0-.002 0-.001 0-.002 0-.001 0-.002 0-.001 0-.001 0-.002 0-.001 0-.001 0-.001 0-.002 0-.001 0-.001 0-.001 0-.001 0-.001 0-.002 0-.001 0-.001 0-.001 0-.001 0-.001 0-.001 0-.001 0-.001 0-.001 0-.001 0-.001 0-.001 0-.001 0-.001 0-.001 0-.001 0-.001 0-.001 0-.001 0-.001 0-.001 0-.001 0-.001 0-.001 0-.001 0-.001 0-.001 0-.001 0-.001 0-.001 0-.001 0-.001 0-.001 0-.001 0-.001 0-.001 0-.001 0-.001 0-.001 0-.001 0-.001 0-.001 0-.001 0-.001 0-.001 0-.001 0-.001 0-.001 0-.001 0-.001 0-.001 0-.001 0-.001 0-.001 0-.001 0-.001 0-.001 0-.001 0-.001 0-.001 0-.001 0-.001 0-.001 0-.001 0-.001 0-.001 0-.001 0-.001 0-.001 0-.001 0V1.329c0-.349.22-.629.557-.759a.972.972 0 011.026.187l5.512 5.15z" stroke="url(#hpaint9_linear)"/><path d="M25.595 5.907l.252.235.309-.151c2.3-1.124 4.973-1.759 7.844-1.759.291 0 .58.007.867.02-4.924 2.056-8.367 7.06-8.367 13.495 0 6.532 3.553 12.165 8.63 14.41-.373.025-.75.038-1.13.038-8.593 0-15.5-6.5-15.5-14.448V17.722v0-.002 0-.002 0-.002 0-.002 0-.002 0-.001 0-.002 0-.002 0-.002 0-.002 0-.001 0-.002 0-.002 0-.002 0-.001 0-.002 0-.002 0-.002 0-.001 0-.002 0-.002 0-.001 0-.002 0-.002 0-.002 0-.001 0-.002 0-.001 0-.002 0-.002 0-.001 0-.002 0-.002 0-.001 0-.002 0-.001 0-.002 0-.002 0-.001 0-.002 0-.001 0-.002 0-.001 0-.002 0-.001 0-.002 0-.001 0-.002 0-.001 0-.002 0-.001 0-.002 0-.001 0-.002 0-.001 0-.002 0-.001 0-.002 0-.002 0-.002 0-.001 0-.002 0-.002 0-.002 0-.001 0-.001 0-.002 0-.001 0-.001 0-.002 0-.001 0-.001 0-.002 0-.002 0-.001 0-.002 0-.002 0-.001 0-.002 0-.002 0-.001 0-.002 0-.001 0-.002 0-.001 0-.002 0-.001 0-.001 0-.002 0-.001 0-.001 0-.001 0-.002 0-.001 0-.001 0-.001 0-.001 0-.001 0-.002 0-.001 0-.001 0-.001 0-.001 0-.001 0-.001 0-.001 0-.001 0-.001 0-.001 0-.001 0-.001 0-.001 0-.001 0-.001 0-.001 0-.001 0-.001 0-.001 0-.001 0-.001 0-.001 0-.001 0-.001 0-.001 0-.001 0-.001 0-.001 0-.001 0-.001 0-.001 0-.001 0-.001 0-.001 0-.001 0-.001 0-.001 0-.001 0-.001 0-.001 0-.001 0-.001 0-.001 0-.001 0-.001 0-.001 0-.001 0-.001 0-.001 0-.001 0-.001 0-.001 0-.001 0-.001 0-.001 0-.001 0-.001 0-.001 0-.001 0-.001 0-.001 0-.001 0-.001 0-.001 0-.001 0-.001 0-.001 0-.001 0-.001 0-.001 0V1.329c0-.349.22-.629.557-.759a.972.972 0 011.026.187l5.512 5.15z" stroke="url(#hpaint10_linear)"/><path d="M25.595 5.907l.252.235.309-.151c2.3-1.124 4.973-1.759 7.844-1.759.291 0 .58.007.867.02-4.924 2.056-8.367 7.06-8.367 13.495 0 6.532 3.553 12.165 8.63 14.41-.373.025-.75.038-1.13.038-8.593 0-15.5-6.5-15.5-14.448V17.722v0-.002 0-.002 0-.002 0-.002 0-.002 0-.001 0-.002 0-.002 0-.002 0-.002 0-.001 0-.002 0-.002 0-.002 0-.001 0-.002 0-.002 0-.002 0-.001 0-.002 0-.002 0-.001 0-.002 0-.002 0-.002 0-.001 0-.002 0-.001 0-.002 0-.002 0-.001 0-.002 0-.002 0-.001 0-.002 0-.001 0-.002 0-.002 0-.001 0-.002 0-.001 0-.002 0-.001 0-.002 0-.001 0-.002 0-.001 0-.002 0-.001 0-.002 0-.001 0-.002 0-.001 0-.002 0-.001 0-.002 0-.001 0-.002 0-.002 0-.002 0-.001 0-.002 0-.002 0-.002 0-.001 0-.001 0-.002 0-.001 0-.001 0-.002 0-.001 0-.001 0-.002 0-.002 0-.001 0-.002 0-.002 0-.001 0-.002 0-.002 0-.001 0-.002 0-.001 0-.002 0-.001 0-.002 0-.001 0-.001 0-.002 0-.001 0-.001 0-.001 0-.002 0-.001 0-.001 0-.001 0-.001 0-.001 0-.002 0-.001 0-.001 0-.001 0-.001 0-.001 0-.001 0-.001 0-.001 0-.001 0-.001 0-.001 0-.001 0-.001 0-.001 0-.001 0-.001 0-.001 0-.001 0-.001 0-.001 0-.001 0-.001 0-.001 0-.001 0-.001 0-.001 0-.001 0-.001 0-.001 0-.001 0-.001 0-.001 0-.001 0-.001 0-.001 0-.001 0-.001 0-.001 0-.001 0-.001 0-.001 0-.001 0-.001 0-.001 0-.001 0-.001 0-.001 0-.001 0-.001 0-.001 0-.001 0-.001 0-.001 0-.001 0-.001 0-.001 0-.001 0-.001 0-.001 0-.001 0-.001 0-.001 0-.001 0-.001 0-.001 0-.001 0-.001 0-.001 0-.001 0-.001 0V1.329c0-.349.22-.629.557-.759a.972.972 0 011.026.187l5.512 5.15z" stroke="url(#hpaint11_linear)"/><path d="M33.5 24.287c0 1.174-1.234 2.303-3 2.303s-3-1.13-3-2.303c0-1.174 1.234-2.303 3-2.303s3 1.129 3 2.303z" fill="#FFFDFB"/><path d="M33.5 24.287c0 1.174-1.234 2.303-3 2.303s-3-1.13-3-2.303c0-1.174 1.234-2.303 3-2.303s3 1.129 3 2.303z" stroke="#fff"/><path d="M33.5 24.287c0 1.174-1.234 2.303-3 2.303s-3-1.13-3-2.303c0-1.174 1.234-2.303 3-2.303s3 1.129 3 2.303z" stroke="url(#hpaint12_linear)"/><path d="M33.5 24.287c0 1.174-1.234 2.303-3 2.303s-3-1.13-3-2.303c0-1.174 1.234-2.303 3-2.303s3 1.129 3 2.303z" stroke="url(#hpaint13_linear)"/><path d="M33.5 24.287c0 1.174-1.234 2.303-3 2.303s-3-1.13-3-2.303c0-1.174 1.234-2.303 3-2.303s3 1.129 3 2.303z" stroke="url(#hpaint14_linear)"/><path d="M33.5 24.287c0 1.174-1.234 2.303-3 2.303s-3-1.13-3-2.303c0-1.174 1.234-2.303 3-2.303s3 1.129 3 2.303z" stroke="url(#hpaint15_linear)"/><path d="M40.5 24.287c0 1.174-1.234 2.303-3 2.303s-3-1.13-3-2.303c0-1.174 1.234-2.303 3-2.303s3 1.129 3 2.303z" fill="#FFFDFB"/><path d="M40.5 24.287c0 1.174-1.234 2.303-3 2.303s-3-1.13-3-2.303c0-1.174 1.234-2.303 3-2.303s3 1.129 3 2.303z" stroke="#fff"/><path d="M40.5 24.287c0 1.174-1.234 2.303-3 2.303s-3-1.13-3-2.303c0-1.174 1.234-2.303 3-2.303s3 1.129 3 2.303z" stroke="url(#hpaint16_linear)"/><path d="M40.5 24.287c0 1.174-1.234 2.303-3 2.303s-3-1.13-3-2.303c0-1.174 1.234-2.303 3-2.303s3 1.129 3 2.303z" stroke="url(#hpaint17_linear)"/><path d="M40.5 24.287c0 1.174-1.234 2.303-3 2.303s-3-1.13-3-2.303c0-1.174 1.234-2.303 3-2.303s3 1.129 3 2.303z" stroke="url(#hpaint18_linear)"/><path d="M40.5 24.287c0 1.174-1.234 2.303-3 2.303s-3-1.13-3-2.303c0-1.174 1.234-2.303 3-2.303s3 1.129 3 2.303z" stroke="url(#hpaint19_linear)"/><path d="M35.5 22.419c0 .724-.639 1.368-1.5 1.368-.86 0-1.5-.644-1.5-1.368 0-.725.64-1.369 1.5-1.369.861 0 1.5.644 1.5 1.369z" fill="#FF913C"/><path d="M35.5 22.419c0 .724-.639 1.368-1.5 1.368-.86 0-1.5-.644-1.5-1.368 0-.725.64-1.369 1.5-1.369.861 0 1.5.644 1.5 1.369z" stroke="#fff"/><path d="M35.5 22.419c0 .724-.639 1.368-1.5 1.368-.86 0-1.5-.644-1.5-1.368 0-.725.64-1.369 1.5-1.369.861 0 1.5.644 1.5 1.369z" stroke="url(#hpaint20_linear)"/><path d="M35.5 22.419c0 .724-.639 1.368-1.5 1.368-.86 0-1.5-.644-1.5-1.368 0-.725.64-1.369 1.5-1.369.861 0 1.5.644 1.5 1.369z" stroke="url(#hpaint21_linear)"/><path d="M35.5 22.419c0 .724-.639 1.368-1.5 1.368-.86 0-1.5-.644-1.5-1.368 0-.725.64-1.369 1.5-1.369.861 0 1.5.644 1.5 1.369z" stroke="url(#hpaint22_linear)"/><path d="M35.5 22.419c0 .724-.639 1.368-1.5 1.368-.86 0-1.5-.644-1.5-1.368 0-.725.64-1.369 1.5-1.369.861 0 1.5.644 1.5 1.369z" stroke="url(#hpaint23_linear)"/><path d="M28 18.18c-.309 0-.5-.225-.5-.433v-.935c0-.208.191-.434.5-.434s.5.226.5.434v.935c0 .208-.191.434-.5.434z" fill="#1A212F"/><path d="M28 18.18c-.309 0-.5-.225-.5-.433v-.935c0-.208.191-.434.5-.434s.5.226.5.434v.935c0 .208-.191.434-.5.434z" stroke="#fff"/><path d="M28 18.18c-.309 0-.5-.225-.5-.433v-.935c0-.208.191-.434.5-.434s.5.226.5.434v.935c0 .208-.191.434-.5.434z" stroke="url(#hpaint24_linear)"/><path d="M28 18.18c-.309 0-.5-.225-.5-.433v-.935c0-.208.191-.434.5-.434s.5.226.5.434v.935c0 .208-.191.434-.5.434z" stroke="url(#hpaint25_linear)"/><path d="M28 18.18c-.309 0-.5-.225-.5-.433v-.935c0-.208.191-.434.5-.434s.5.226.5.434v.935c0 .208-.191.434-.5.434z" stroke="url(#hpaint26_linear)"/><path d="M28 18.18c-.309 0-.5-.225-.5-.433v-.935c0-.208.191-.434.5-.434s.5.226.5.434v.935c0 .208-.191.434-.5.434z" stroke="url(#hpaint27_linear)"/><path d="M40.5 17.747c0 .208-.191.434-.5.434-.31 0-.5-.226-.5-.434v-.935c0-.208.19-.434.5-.434.309 0 .5.226.5.434v.935z" fill="#1A212F"/><path d="M40.5 17.747v0c0 .208-.191.434-.5.434-.31 0-.5-.226-.5-.434v-.935c0-.208.19-.434.5-.434.309 0 .5.226.5.434v.935z" stroke="#fff"/><path d="M40.5 17.747v0c0 .208-.191.434-.5.434-.31 0-.5-.226-.5-.434v-.935c0-.208.19-.434.5-.434.309 0 .5.226.5.434v.935z" stroke="url(#hpaint28_linear)"/><path d="M40.5 17.747v0c0 .208-.191.434-.5.434-.31 0-.5-.226-.5-.434v-.935c0-.208.19-.434.5-.434.309 0 .5.226.5.434v.935z" stroke="url(#hpaint29_linear)"/><path d="M40.5 17.747v0c0 .208-.191.434-.5.434-.31 0-.5-.226-.5-.434v-.935c0-.208.19-.434.5-.434.309 0 .5.226.5.434v.935z" stroke="url(#hpaint30_linear)"/><path d="M40.5 17.747v0c0 .208-.191.434-.5.434-.31 0-.5-.226-.5-.434v-.935c0-.208.19-.434.5-.434.309 0 .5.226.5.434v.935z" stroke="url(#hpaint31_linear)"/><path d="M24.422 48.91c.705 0 1.192-.133 1.54-.32a1.944 1.944 0 00.573-.469l.132-.137.007-.19c.035-.953-.005-2.705-.042-4.35l-.03-1.361c.176-.002.347-.006.51-.014.604-.019 1.102-.201 1.436-.586.328-.377.425-.863.415-1.33m-4.541 8.758h-.005v-.5l.01.5h-.005zm0 0c-.413.008-.774-.053-1.076-.206a1.489 1.489 0 01-.671-.674 2.51 2.51 0 01-.23-.849 8.972 8.972 0 01-.044-.883c-.039-2.396-.036-3.477-.033-4.26-.983-.018-1.756-.284-2.128-.994-.34-.648-.242-1.503-.016-2.398l.104-.409.42.033c.166.013.292.014 2.747-.002H26.56c.613 0 1.196.135 1.642.446.465.324.749.82.76 1.437m0 0l-.5.01.5-.01zm5.648 8.727c.836-.064 1.605-.318 1.998-.966.394-.648.287-1.488-.111-2.41l-.151-.35-.377.053c-1.064.148-2.028.199-2.714.144l-.002-.106.639-.011h.01c.372-.008.734-.015 1.072-.015.496 0 .902-.194 1.172-.52.26-.314.36-.711.347-1.081-.027-.717-.527-1.556-1.522-1.564a13.905 13.905 0 00-1.161-.003c-.192.004-.375.007-.577.001v-.254c.5-.022.847-.007 1.3.013l.422.017h.004c.517.015.95-.164 1.252-.486.293-.313.429-.722.44-1.118.02-.78-.451-1.67-1.444-1.882l-.029-.006-3.783 10.045-.035.5h.002c1.31.092 2.06.092 3.248-.001zm0 0h-.001l-.038-.498.039.498zm-5.246-10.034l.5-.019-.003-.033-.497.052zm0 0l.02.5.027-.002c-.015-.169-.03-.335-.047-.498zm10.715-3.864l.223.077.057.02c.514.178.97.336 1.48.376.51.04 1.097-.04 1.835-.403l.26-.128.241.163c.662.447.99 1.071.835 1.73-.141.609-.657 1.068-1.258 1.324l-.004.001a6.476 6.476 0 01-2.1.467 4.807 4.807 0 01-.87-.032c.05.032.1.067.146.105.414.337.585.841.585 1.435 0 .085-.004.287-.01.56.098-.297.193-.577.278-.827l.001-.003c.195-.558.486-.985.95-1.253.444-.255.979-.324 1.57-.324.55 0 1.074.124 1.468.446.412.335.612.826.612 1.401v.017a73.24 73.24 0 00-.032 2.254c0 1.08.011 2.304.04 3.314.014.505.032.953.054 1.3.01.174.023.32.035.431a2.68 2.68 0 00.029.191l.06.21-.114.187c-.173.284-.485.506-.863.657-.388.154-.883.249-1.483.249-.728 0-1.281-.21-1.591-.728-.262-.437-.278-1.004-.279-1.49-.19.497-.434.98-.765 1.366-.413.485-.97.827-1.7.852l-.017-.5c-1.258.045-1.758-.439-1.806-1.892l2.133-11.553zm0 0l-.201.123c-.631.386-1.01.926-1.043 1.534-.033.6.278 1.14.755 1.512l.013.01.014.01c.06.04.122.077.187.111m.275-3.3l-.275 3.3m0 0a3.804 3.804 0 00-.31-.012c-.401 0-.916.115-1.293.213a12.82 12.82 0 00-.646.188l-.042.013-.011.004-.003.001h-.001l.158.475 2.148-.882zM5.98 41.21a2.88 2.88 0 01-.11.494v-.13c.002-.49-.01-1.063-.105-1.657l-.002-.012c-.107-.58-.392-.999-.804-1.256-.393-.245-.848-.31-1.253-.303-.805.013-1.61.312-1.898.432l-.345.142.039.37c.18 1.744.179 2.361.175 4.11v.86c.005.305-.005.678-.015 1.075l-.01.379c-.012.516-.017 1.057.028 1.452v.003c.07.589.32 1.04.704 1.34.374.293.827.407 1.252.425.427.018.858-.058 1.228-.184.363-.123.714-.308.952-.542l.15-.147v-.21c0-.66-.012-1.895-.043-2.825.033.012.05.027.074.07.044.076.095.23.131.533.036.296.054.689.062 1.215.006.641.217 1.152.598 1.51.37.348.848.503 1.304.548.459.045.932-.016 1.346-.137.406-.119.8-.31 1.073-.56l.242-.223-.108-.31c-.113-.324-.16-.713-.183-1.145-.007-.138-.013-.287-.018-.438-.01-.288-.02-.588-.048-.844-.049-.542-.25-1.112-.709-1.56a2.46 2.46 0 00-.762-.501c.235-.255.449-.563.624-.897.426-.812.676-1.889.319-2.857l-.002-.005c-.157-.412-.408-.714-.733-.906a1.948 1.948 0 00-.986-.249c-.552-.004-1.136.166-1.535.282a19.66 19.66 0 01-.139.04l-.316.09-.043.325c-.041.308-.05.67-.06 1.013l-.002.092c-.01.386-.024.759-.072 1.098zm6.431 6.936c.958.744 2.134.819 3.004.796.81 0 1.978-.104 2.948-.844 1-.762 1.68-2.11 1.688-4.361v-.004c-.008-1.91-.464-3.297-1.31-4.208-.853-.917-2.025-1.27-3.285-1.27-1.329 0-2.52.386-3.373 1.319-.846.925-1.286 2.31-1.286 4.16 0 2.282.63 3.649 1.614 4.412zm2.707-4.507v-.01c0-1.014.14-1.521.261-1.758a.446.446 0 01.107-.15l.047-.002h.007l.002.002c.038.054.11.194.169.508.058.308.1.756.1 1.4 0 .846-.073 1.463-.195 1.852-.061.194-.124.295-.164.34a.161.161 0 01-.019.017.156.156 0 01-.04-.006c-.002-.001-.045-.032-.097-.167-.113-.29-.202-.882-.178-2.026zm.382-1.925l-.01.004c.007-.004.01-.005.01-.004zm35.799-.504c-.027.19-.064.354-.11.494v-.13c.002-.49-.01-1.063-.105-1.657l-.002-.012c-.107-.58-.392-.999-.804-1.256-.393-.245-.848-.31-1.253-.303-.805.013-1.61.312-1.898.432l-.345.142.039.37c.18 1.744.178 2.361.175 4.11v.86c.005.305-.005.678-.015 1.074l-.01.38c-.012.516-.017 1.057.027 1.452v.003c.07.589.32 1.04.705 1.34.374.293.827.407 1.252.425.426.018.857-.058 1.228-.184.363-.123.714-.308.952-.542l.149-.147v-.21c0-.66-.01-1.895-.042-2.825.033.012.05.027.074.07.044.076.094.23.131.533.036.296.054.689.062 1.215.006.641.217 1.152.597 1.51.37.348.849.503 1.305.548.459.045.932-.016 1.346-.137.406-.119.8-.31 1.073-.56l.242-.223-.108-.31c-.113-.324-.16-.713-.183-1.145a23.76 23.76 0 01-.018-.438c-.01-.288-.021-.588-.048-.844-.049-.542-.25-1.112-.709-1.56a2.46 2.46 0 00-.762-.501c.235-.255.449-.563.624-.897.426-.812.676-1.889.319-2.857l-.002-.005c-.157-.412-.408-.714-.733-.906a1.948 1.948 0 00-.986-.249c-.552-.004-1.137.166-1.536.282l-.138.04-.316.09-.043.325a10.077 10.077 0 00-.062 1.105 9.78 9.78 0 01-.072 1.098zm14.12 6.836l.137-.212-.09-.236c-.165-.433-.176-.64-.208-1.251-.005-.097-.01-.205-.018-.325l-.038-.691c-.047-.863-.093-1.725-.19-2.525-.124-1.015-.335-1.987-.764-2.8l-.006-.013-.008-.013c-.778-1.29-2.154-1.718-3.464-1.704-1.306.014-2.65.464-3.546 1.063l-.207.138-.014.25c-.07 1.278-.223 2.177-.4 3.13l-.048.265c-.164.884-.343 1.847-.485 3.194-.064.608.02 1.147.247 1.59.23.449.593.77 1.03.955.86.365 1.95.192 2.924-.382l.247-.145v-.285c0-.13 0-.409.01-.68l.007-.178.101.002h.072l.208.004.008.067c.041.314.153.779.488 1.129.549.584 1.394.745 2.118.67.718-.076 1.495-.402 1.89-1.017zm-4.64-3.88c0 .043.003.086.004.128h-.02l.012-.2.002.033.001.04z" fill="#1A212F"/><path d="M24.422 48.91c.705 0 1.192-.133 1.54-.32a1.944 1.944 0 00.573-.469l.132-.137.007-.19c.035-.953-.005-2.705-.042-4.35l-.03-1.361c.176-.002.347-.006.51-.014.604-.019 1.102-.201 1.436-.586.328-.377.425-.863.415-1.33m-4.541 8.758h-.005v-.5l.01.5h-.005zm0 0c-.413.008-.774-.053-1.076-.206a1.489 1.489 0 01-.671-.674 2.51 2.51 0 01-.23-.849 8.972 8.972 0 01-.044-.883c-.039-2.396-.036-3.477-.033-4.26-.983-.018-1.756-.284-2.128-.994-.34-.648-.242-1.503-.016-2.398l.104-.409.42.033c.166.013.292.014 2.747-.002H26.56c.613 0 1.196.135 1.642.446.465.324.749.82.76 1.437m0 0s0 0 0 0l-.5.01.5-.01s0 0 0 0zm5.648 8.727c.836-.064 1.605-.318 1.998-.966.394-.648.287-1.488-.111-2.41l-.151-.35-.377.053c-1.064.148-2.028.199-2.714.144l-.002-.106.639-.011h.01c.372-.008.734-.015 1.072-.015.496 0 .902-.194 1.172-.52.26-.314.36-.711.347-1.081-.027-.717-.527-1.556-1.522-1.564a13.905 13.905 0 00-1.161-.003c-.192.004-.375.007-.577.001v-.254c.5-.022.847-.007 1.3.013l.422.017h.004c.517.015.95-.164 1.252-.486.293-.313.429-.722.44-1.118.02-.78-.451-1.67-1.444-1.882l-.029-.006-3.783 10.045-.035.5h.002c1.31.092 2.06.092 3.248-.001zm0 0h-.001l-.038-.498.039.498s0 0 0 0zm-5.246-10.034l.5-.019-.003-.033-.497.052zm0 0l.02.5.027-.002c-.015-.169-.03-.335-.047-.498zm10.715-3.864l.223.077.057.02c.514.178.97.336 1.48.376.51.04 1.097-.04 1.835-.403l.26-.128.241.163c.662.447.99 1.071.835 1.73-.141.609-.657 1.068-1.258 1.324l-.004.001a6.476 6.476 0 01-2.1.467 4.807 4.807 0 01-.87-.032c.05.032.1.067.146.105.414.337.585.841.585 1.435 0 .085-.004.287-.01.56.098-.297.193-.577.278-.827l.001-.003c.195-.558.486-.985.95-1.253.444-.255.979-.324 1.57-.324.55 0 1.074.124 1.468.446.412.335.612.826.612 1.401v.017a73.24 73.24 0 00-.032 2.254c0 1.08.011 2.304.04 3.314.014.505.032.953.054 1.3.01.174.023.32.035.431a2.68 2.68 0 00.029.191l.06.21-.114.187c-.173.284-.485.506-.863.657-.388.154-.883.249-1.483.249-.728 0-1.281-.21-1.591-.728-.262-.437-.278-1.004-.279-1.49-.19.497-.434.98-.765 1.366-.413.485-.97.827-1.7.852 0 0 0 0 0 0l-.017-.5c-1.258.045-1.758-.439-1.806-1.892l2.133-11.553zm0 0l-.201.123c-.631.386-1.01.926-1.043 1.534-.033.6.278 1.14.755 1.512l.013.01.014.01c.06.04.122.077.187.111m.275-3.3l-.275 3.3m0 0a3.804 3.804 0 00-.31-.012c-.401 0-.916.115-1.293.213a12.82 12.82 0 00-.646.188l-.042.013-.011.004-.003.001h-.001 0l.158.475 2.148-.882zM5.98 41.21a2.88 2.88 0 01-.11.494v-.13c.002-.49-.01-1.063-.105-1.657h0l-.002-.012c-.107-.58-.392-.999-.804-1.256-.393-.245-.848-.31-1.253-.303-.805.013-1.61.312-1.898.432l-.345.142.039.37c.18 1.744.179 2.361.175 4.11v.85h0v.01c.005.305-.005.678-.015 1.075l-.01.379c-.012.516-.017 1.057.028 1.452v.003c.07.589.32 1.04.704 1.34.374.293.827.407 1.252.425.427.018.858-.058 1.228-.184.363-.123.714-.308.952-.542l.15-.147v-.21c0-.66-.012-1.895-.043-2.825.033.012.05.027.074.07.044.076.095.23.131.533.036.296.054.689.062 1.215.006.641.217 1.152.598 1.51.37.348.848.503 1.304.548.459.045.932-.016 1.346-.137.406-.119.8-.31 1.073-.56l.242-.223-.108-.31c-.113-.324-.16-.713-.183-1.145-.007-.138-.013-.287-.018-.438-.01-.288-.02-.588-.048-.844-.049-.542-.25-1.112-.709-1.56a2.46 2.46 0 00-.762-.501c.235-.255.449-.563.624-.897.426-.812.676-1.889.319-2.857h0l-.002-.005c-.157-.412-.408-.714-.733-.906a1.948 1.948 0 00-.986-.249c-.552-.004-1.136.166-1.535.282a19.66 19.66 0 01-.139.04l-.316.09-.043.325c-.041.308-.05.67-.06 1.013l-.002.092c-.01.386-.024.759-.072 1.098zm6.431 6.936c.958.744 2.134.819 3.004.796.81 0 1.978-.104 2.948-.844 1-.762 1.68-2.11 1.688-4.361v-.004c-.008-1.91-.464-3.297-1.31-4.208-.853-.917-2.025-1.27-3.285-1.27-1.329 0-2.52.386-3.373 1.319-.846.925-1.286 2.31-1.286 4.16 0 2.282.63 3.649 1.614 4.412zm2.707-4.507h0v-.01c0-1.014.14-1.521.261-1.758a.446.446 0 01.107-.15l.047-.002h.007l.002.002c.038.054.11.194.169.508.058.308.1.756.1 1.4 0 .846-.073 1.463-.195 1.852-.061.194-.124.295-.164.34a.161.161 0 01-.019.017.156.156 0 01-.04-.006h0c-.002-.001-.045-.032-.097-.167-.113-.29-.202-.882-.178-2.026zm.382-1.925l-.01.004c.007-.004.01-.005.01-.004zm35.799-.504c-.027.19-.064.354-.11.494v-.13c.002-.49-.01-1.063-.105-1.657h0l-.002-.012c-.107-.58-.392-.999-.804-1.256-.393-.245-.848-.31-1.253-.303-.805.013-1.61.312-1.898.432l-.345.142.039.37c.18 1.744.178 2.361.175 4.11v.85h0v.01c.005.305-.005.678-.015 1.074l-.01.38c-.012.516-.017 1.057.027 1.452v.003c.07.589.32 1.04.705 1.34.374.293.827.407 1.252.425.426.018.857-.058 1.228-.184.363-.123.714-.308.952-.542l.149-.147v-.21c0-.66-.01-1.895-.042-2.825.033.012.05.027.074.07.044.076.094.23.131.533.036.296.054.689.062 1.215.006.641.217 1.152.597 1.51.37.348.849.503 1.305.548.459.045.932-.016 1.346-.137.406-.119.8-.31 1.073-.56l.242-.223-.108-.31c-.113-.324-.16-.713-.183-1.145a23.76 23.76 0 01-.018-.438c-.01-.288-.021-.588-.048-.844-.049-.542-.25-1.112-.709-1.56a2.46 2.46 0 00-.762-.501c.235-.255.449-.563.624-.897.426-.812.676-1.889.319-2.857l-.002-.005c-.157-.412-.408-.714-.733-.906a1.948 1.948 0 00-.986-.249c-.552-.004-1.137.166-1.536.282l-.138.04-.316.09-.043.325a10.077 10.077 0 00-.062 1.105 9.78 9.78 0 01-.072 1.098zm14.12 6.836l.137-.212-.09-.236c-.165-.433-.176-.64-.208-1.251-.005-.097-.01-.205-.018-.325h0l-.038-.691c-.047-.863-.093-1.725-.19-2.525-.124-1.015-.335-1.987-.764-2.8l-.006-.013-.008-.013c-.778-1.29-2.154-1.718-3.464-1.704-1.306.014-2.65.464-3.546 1.063l-.207.138-.014.25c-.07 1.278-.223 2.177-.4 3.13l-.048.265c-.164.884-.343 1.847-.485 3.194-.064.608.02 1.147.247 1.59.23.449.593.77 1.03.955.86.365 1.95.192 2.924-.382l.247-.145v-.285c0-.13 0-.409.01-.68l.007-.178.101.002h.072l.208.004.008.067c.041.314.153.779.488 1.129.549.584 1.394.745 2.118.67.718-.076 1.495-.402 1.89-1.017zm-4.64-3.88c0 .043.003.086.004.128h-.02l.012-.2.002.033.001.04z" stroke="#fff"/><path d="M24.422 48.91c.705 0 1.192-.133 1.54-.32a1.944 1.944 0 00.573-.469l.132-.137.007-.19c.035-.953-.005-2.705-.042-4.35l-.03-1.361c.176-.002.347-.006.51-.014.604-.019 1.102-.201 1.436-.586.328-.377.425-.863.415-1.33m-4.541 8.758h-.005v-.5l.01.5h-.005zm0 0c-.413.008-.774-.053-1.076-.206a1.489 1.489 0 01-.671-.674 2.51 2.51 0 01-.23-.849 8.972 8.972 0 01-.044-.883c-.039-2.396-.036-3.477-.033-4.26-.983-.018-1.756-.284-2.128-.994-.34-.648-.242-1.503-.016-2.398l.104-.409.42.033c.166.013.292.014 2.747-.002H26.56c.613 0 1.196.135 1.642.446.465.324.749.82.76 1.437m0 0s0 0 0 0l-.5.01.5-.01s0 0 0 0zm5.648 8.727c.836-.064 1.605-.318 1.998-.966.394-.648.287-1.488-.111-2.41l-.151-.35-.377.053c-1.064.148-2.028.199-2.714.144l-.002-.106.639-.011h.01c.372-.008.734-.015 1.072-.015.496 0 .902-.194 1.172-.52.26-.314.36-.711.347-1.081-.027-.717-.527-1.556-1.522-1.564a13.905 13.905 0 00-1.161-.003c-.192.004-.375.007-.577.001v-.254c.5-.022.847-.007 1.3.013l.422.017h.004c.517.015.95-.164 1.252-.486.293-.313.429-.722.44-1.118.02-.78-.451-1.67-1.444-1.882l-.029-.006-3.783 10.045-.035.5h.002c1.31.092 2.06.092 3.248-.001zm0 0h-.001l-.038-.498.039.498s0 0 0 0zm-5.246-10.034l.5-.019-.003-.033-.497.052zm0 0l.02.5.027-.002c-.015-.169-.03-.335-.047-.498zm10.715-3.864l.223.077.057.02c.514.178.97.336 1.48.376.51.04 1.097-.04 1.835-.403l.26-.128.241.163c.662.447.99 1.071.835 1.73-.141.609-.657 1.068-1.258 1.324l-.004.001a6.476 6.476 0 01-2.1.467 4.807 4.807 0 01-.87-.032c.05.032.1.067.146.105.414.337.585.841.585 1.435 0 .085-.004.287-.01.56.098-.297.193-.577.278-.827l.001-.003c.195-.558.486-.985.95-1.253.444-.255.979-.324 1.57-.324.55 0 1.074.124 1.468.446.412.335.612.826.612 1.401v.017a73.24 73.24 0 00-.032 2.254c0 1.08.011 2.304.04 3.314.014.505.032.953.054 1.3.01.174.023.32.035.431a2.68 2.68 0 00.029.191l.06.21-.114.187c-.173.284-.485.506-.863.657-.388.154-.883.249-1.483.249-.728 0-1.281-.21-1.591-.728-.262-.437-.278-1.004-.279-1.49-.19.497-.434.98-.765 1.366-.413.485-.97.827-1.7.852 0 0 0 0 0 0l-.017-.5c-1.258.045-1.758-.439-1.806-1.892l2.133-11.553zm0 0l-.201.123c-.631.386-1.01.926-1.043 1.534-.033.6.278 1.14.755 1.512l.013.01.014.01c.06.04.122.077.187.111m.275-3.3l-.275 3.3m0 0a3.804 3.804 0 00-.31-.012c-.401 0-.916.115-1.293.213a12.82 12.82 0 00-.646.188l-.042.013-.011.004-.003.001h-.001 0l.158.475 2.148-.882zM5.98 41.21a2.88 2.88 0 01-.11.494v-.13c.002-.49-.01-1.063-.105-1.657h0l-.002-.012c-.107-.58-.392-.999-.804-1.256-.393-.245-.848-.31-1.253-.303-.805.013-1.61.312-1.898.432l-.345.142.039.37c.18 1.744.179 2.361.175 4.11v.85h0v.01c.005.305-.005.678-.015 1.075l-.01.379c-.012.516-.017 1.057.028 1.452v.003c.07.589.32 1.04.704 1.34.374.293.827.407 1.252.425.427.018.858-.058 1.228-.184.363-.123.714-.308.952-.542l.15-.147v-.21c0-.66-.012-1.895-.043-2.825.033.012.05.027.074.07.044.076.095.23.131.533.036.296.054.689.062 1.215.006.641.217 1.152.598 1.51.37.348.848.503 1.304.548.459.045.932-.016 1.346-.137.406-.119.8-.31 1.073-.56l.242-.223-.108-.31c-.113-.324-.16-.713-.183-1.145-.007-.138-.013-.287-.018-.438-.01-.288-.02-.588-.048-.844-.049-.542-.25-1.112-.709-1.56a2.46 2.46 0 00-.762-.501c.235-.255.449-.563.624-.897.426-.812.676-1.889.319-2.857h0l-.002-.005c-.157-.412-.408-.714-.733-.906a1.948 1.948 0 00-.986-.249c-.552-.004-1.136.166-1.535.282a19.66 19.66 0 01-.139.04l-.316.09-.043.325c-.041.308-.05.67-.06 1.013l-.002.092c-.01.386-.024.759-.072 1.098zm6.431 6.936c.958.744 2.134.819 3.004.796.81 0 1.978-.104 2.948-.844 1-.762 1.68-2.11 1.688-4.361v-.004c-.008-1.91-.464-3.297-1.31-4.208-.853-.917-2.025-1.27-3.285-1.27-1.329 0-2.52.386-3.373 1.319-.846.925-1.286 2.31-1.286 4.16 0 2.282.63 3.649 1.614 4.412zm2.707-4.507h0v-.01c0-1.014.14-1.521.261-1.758a.446.446 0 01.107-.15l.047-.002h.007l.002.002c.038.054.11.194.169.508.058.308.1.756.1 1.4 0 .846-.073 1.463-.195 1.852-.061.194-.124.295-.164.34a.161.161 0 01-.019.017.156.156 0 01-.04-.006h0c-.002-.001-.045-.032-.097-.167-.113-.29-.202-.882-.178-2.026zm.382-1.925l-.01.004c.007-.004.01-.005.01-.004zm35.799-.504c-.027.19-.064.354-.11.494v-.13c.002-.49-.01-1.063-.105-1.657h0l-.002-.012c-.107-.58-.392-.999-.804-1.256-.393-.245-.848-.31-1.253-.303-.805.013-1.61.312-1.898.432l-.345.142.039.37c.18 1.744.178 2.361.175 4.11v.85h0v.01c.005.305-.005.678-.015 1.074l-.01.38c-.012.516-.017 1.057.027 1.452v.003c.07.589.32 1.04.705 1.34.374.293.827.407 1.252.425.426.018.857-.058 1.228-.184.363-.123.714-.308.952-.542l.149-.147v-.21c0-.66-.01-1.895-.042-2.825.033.012.05.027.074.07.044.076.094.23.131.533.036.296.054.689.062 1.215.006.641.217 1.152.597 1.51.37.348.849.503 1.305.548.459.045.932-.016 1.346-.137.406-.119.8-.31 1.073-.56l.242-.223-.108-.31c-.113-.324-.16-.713-.183-1.145a23.76 23.76 0 01-.018-.438c-.01-.288-.021-.588-.048-.844-.049-.542-.25-1.112-.709-1.56a2.46 2.46 0 00-.762-.501c.235-.255.449-.563.624-.897.426-.812.676-1.889.319-2.857l-.002-.005c-.157-.412-.408-.714-.733-.906a1.948 1.948 0 00-.986-.249c-.552-.004-1.137.166-1.536.282l-.138.04-.316.09-.043.325a10.077 10.077 0 00-.062 1.105 9.78 9.78 0 01-.072 1.098zm14.12 6.836l.137-.212-.09-.236c-.165-.433-.176-.64-.208-1.251-.005-.097-.01-.205-.018-.325h0l-.038-.691c-.047-.863-.093-1.725-.19-2.525-.124-1.015-.335-1.987-.764-2.8l-.006-.013-.008-.013c-.778-1.29-2.154-1.718-3.464-1.704-1.306.014-2.65.464-3.546 1.063l-.207.138-.014.25c-.07 1.278-.223 2.177-.4 3.13l-.048.265c-.164.884-.343 1.847-.485 3.194-.064.608.02 1.147.247 1.59.23.449.593.77 1.03.955.86.365 1.95.192 2.924-.382l.247-.145v-.285c0-.13 0-.409.01-.68l.007-.178.101.002h.072l.208.004.008.067c.041.314.153.779.488 1.129.549.584 1.394.745 2.118.67.718-.076 1.495-.402 1.89-1.017zm-4.64-3.88c0 .043.003.086.004.128h-.02l.012-.2.002.033.001.04z" stroke="url(#hpaint32_linear)"/><path d="M24.422 48.91c.705 0 1.192-.133 1.54-.32a1.944 1.944 0 00.573-.469l.132-.137.007-.19c.035-.953-.005-2.705-.042-4.35l-.03-1.361c.176-.002.347-.006.51-.014.604-.019 1.102-.201 1.436-.586.328-.377.425-.863.415-1.33m-4.541 8.758h-.005v-.5l.01.5h-.005zm0 0c-.413.008-.774-.053-1.076-.206a1.489 1.489 0 01-.671-.674 2.51 2.51 0 01-.23-.849 8.972 8.972 0 01-.044-.883c-.039-2.396-.036-3.477-.033-4.26-.983-.018-1.756-.284-2.128-.994-.34-.648-.242-1.503-.016-2.398l.104-.409.42.033c.166.013.292.014 2.747-.002H26.56c.613 0 1.196.135 1.642.446.465.324.749.82.76 1.437m0 0s0 0 0 0l-.5.01.5-.01s0 0 0 0zm5.648 8.727c.836-.064 1.605-.318 1.998-.966.394-.648.287-1.488-.111-2.41l-.151-.35-.377.053c-1.064.148-2.028.199-2.714.144l-.002-.106.639-.011h.01c.372-.008.734-.015 1.072-.015.496 0 .902-.194 1.172-.52.26-.314.36-.711.347-1.081-.027-.717-.527-1.556-1.522-1.564a13.905 13.905 0 00-1.161-.003c-.192.004-.375.007-.577.001v-.254c.5-.022.847-.007 1.3.013l.422.017h.004c.517.015.95-.164 1.252-.486.293-.313.429-.722.44-1.118.02-.78-.451-1.67-1.444-1.882l-.029-.006-3.783 10.045-.035.5h.002c1.31.092 2.06.092 3.248-.001zm0 0h-.001l-.038-.498.039.498s0 0 0 0zm-5.246-10.034l.5-.019-.003-.033-.497.052zm0 0l.02.5.027-.002c-.015-.169-.03-.335-.047-.498zm10.715-3.864l.223.077.057.02c.514.178.97.336 1.48.376.51.04 1.097-.04 1.835-.403l.26-.128.241.163c.662.447.99 1.071.835 1.73-.141.609-.657 1.068-1.258 1.324l-.004.001a6.476 6.476 0 01-2.1.467 4.807 4.807 0 01-.87-.032c.05.032.1.067.146.105.414.337.585.841.585 1.435 0 .085-.004.287-.01.56.098-.297.193-.577.278-.827l.001-.003c.195-.558.486-.985.95-1.253.444-.255.979-.324 1.57-.324.55 0 1.074.124 1.468.446.412.335.612.826.612 1.401v.017a73.24 73.24 0 00-.032 2.254c0 1.08.011 2.304.04 3.314.014.505.032.953.054 1.3.01.174.023.32.035.431a2.68 2.68 0 00.029.191l.06.21-.114.187c-.173.284-.485.506-.863.657-.388.154-.883.249-1.483.249-.728 0-1.281-.21-1.591-.728-.262-.437-.278-1.004-.279-1.49-.19.497-.434.98-.765 1.366-.413.485-.97.827-1.7.852 0 0 0 0 0 0l-.017-.5c-1.258.045-1.758-.439-1.806-1.892l2.133-11.553zm0 0l-.201.123c-.631.386-1.01.926-1.043 1.534-.033.6.278 1.14.755 1.512l.013.01.014.01c.06.04.122.077.187.111m.275-3.3l-.275 3.3m0 0a3.804 3.804 0 00-.31-.012c-.401 0-.916.115-1.293.213a12.82 12.82 0 00-.646.188l-.042.013-.011.004-.003.001h-.001 0l.158.475 2.148-.882zM5.98 41.21a2.88 2.88 0 01-.11.494v-.13c.002-.49-.01-1.063-.105-1.657h0l-.002-.012c-.107-.58-.392-.999-.804-1.256-.393-.245-.848-.31-1.253-.303-.805.013-1.61.312-1.898.432l-.345.142.039.37c.18 1.744.179 2.361.175 4.11v.85h0v.01c.005.305-.005.678-.015 1.075l-.01.379c-.012.516-.017 1.057.028 1.452v.003c.07.589.32 1.04.704 1.34.374.293.827.407 1.252.425.427.018.858-.058 1.228-.184.363-.123.714-.308.952-.542l.15-.147v-.21c0-.66-.012-1.895-.043-2.825.033.012.05.027.074.07.044.076.095.23.131.533.036.296.054.689.062 1.215.006.641.217 1.152.598 1.51.37.348.848.503 1.304.548.459.045.932-.016 1.346-.137.406-.119.8-.31 1.073-.56l.242-.223-.108-.31c-.113-.324-.16-.713-.183-1.145-.007-.138-.013-.287-.018-.438-.01-.288-.02-.588-.048-.844-.049-.542-.25-1.112-.709-1.56a2.46 2.46 0 00-.762-.501c.235-.255.449-.563.624-.897.426-.812.676-1.889.319-2.857h0l-.002-.005c-.157-.412-.408-.714-.733-.906a1.948 1.948 0 00-.986-.249c-.552-.004-1.136.166-1.535.282a19.66 19.66 0 01-.139.04l-.316.09-.043.325c-.041.308-.05.67-.06 1.013l-.002.092c-.01.386-.024.759-.072 1.098zm6.431 6.936c.958.744 2.134.819 3.004.796.81 0 1.978-.104 2.948-.844 1-.762 1.68-2.11 1.688-4.361v-.004c-.008-1.91-.464-3.297-1.31-4.208-.853-.917-2.025-1.27-3.285-1.27-1.329 0-2.52.386-3.373 1.319-.846.925-1.286 2.31-1.286 4.16 0 2.282.63 3.649 1.614 4.412zm2.707-4.507h0v-.01c0-1.014.14-1.521.261-1.758a.446.446 0 01.107-.15l.047-.002h.007l.002.002c.038.054.11.194.169.508.058.308.1.756.1 1.4 0 .846-.073 1.463-.195 1.852-.061.194-.124.295-.164.34a.161.161 0 01-.019.017.156.156 0 01-.04-.006h0c-.002-.001-.045-.032-.097-.167-.113-.29-.202-.882-.178-2.026zm.382-1.925l-.01.004c.007-.004.01-.005.01-.004zm35.799-.504c-.027.19-.064.354-.11.494v-.13c.002-.49-.01-1.063-.105-1.657h0l-.002-.012c-.107-.58-.392-.999-.804-1.256-.393-.245-.848-.31-1.253-.303-.805.013-1.61.312-1.898.432l-.345.142.039.37c.18 1.744.178 2.361.175 4.11v.85h0v.01c.005.305-.005.678-.015 1.074l-.01.38c-.012.516-.017 1.057.027 1.452v.003c.07.589.32 1.04.705 1.34.374.293.827.407 1.252.425.426.018.857-.058 1.228-.184.363-.123.714-.308.952-.542l.149-.147v-.21c0-.66-.01-1.895-.042-2.825.033.012.05.027.074.07.044.076.094.23.131.533.036.296.054.689.062 1.215.006.641.217 1.152.597 1.51.37.348.849.503 1.305.548.459.045.932-.016 1.346-.137.406-.119.8-.31 1.073-.56l.242-.223-.108-.31c-.113-.324-.16-.713-.183-1.145a23.76 23.76 0 01-.018-.438c-.01-.288-.021-.588-.048-.844-.049-.542-.25-1.112-.709-1.56a2.46 2.46 0 00-.762-.501c.235-.255.449-.563.624-.897.426-.812.676-1.889.319-2.857l-.002-.005c-.157-.412-.408-.714-.733-.906a1.948 1.948 0 00-.986-.249c-.552-.004-1.137.166-1.536.282l-.138.04-.316.09-.043.325a10.077 10.077 0 00-.062 1.105 9.78 9.78 0 01-.072 1.098zm14.12 6.836l.137-.212-.09-.236c-.165-.433-.176-.64-.208-1.251-.005-.097-.01-.205-.018-.325h0l-.038-.691c-.047-.863-.093-1.725-.19-2.525-.124-1.015-.335-1.987-.764-2.8l-.006-.013-.008-.013c-.778-1.29-2.154-1.718-3.464-1.704-1.306.014-2.65.464-3.546 1.063l-.207.138-.014.25c-.07 1.278-.223 2.177-.4 3.13l-.048.265c-.164.884-.343 1.847-.485 3.194-.064.608.02 1.147.247 1.59.23.449.593.77 1.03.955.86.365 1.95.192 2.924-.382l.247-.145v-.285c0-.13 0-.409.01-.68l.007-.178.101.002h.072l.208.004.008.067c.041.314.153.779.488 1.129.549.584 1.394.745 2.118.67.718-.076 1.495-.402 1.89-1.017zm-4.64-3.88c0 .043.003.086.004.128h-.02l.012-.2.002.033.001.04z" stroke="url(#hpaint33_linear)"/><path d="M24.422 48.91c.705 0 1.192-.133 1.54-.32a1.944 1.944 0 00.573-.469l.132-.137.007-.19c.035-.953-.005-2.705-.042-4.35l-.03-1.361c.176-.002.347-.006.51-.014.604-.019 1.102-.201 1.436-.586.328-.377.425-.863.415-1.33m-4.541 8.758h-.005v-.5l.01.5h-.005zm0 0c-.413.008-.774-.053-1.076-.206a1.489 1.489 0 01-.671-.674 2.51 2.51 0 01-.23-.849 8.972 8.972 0 01-.044-.883c-.039-2.396-.036-3.477-.033-4.26-.983-.018-1.756-.284-2.128-.994-.34-.648-.242-1.503-.016-2.398l.104-.409.42.033c.166.013.292.014 2.747-.002H26.56c.613 0 1.196.135 1.642.446.465.324.749.82.76 1.437m0 0s0 0 0 0l-.5.01.5-.01s0 0 0 0zm5.648 8.727c.836-.064 1.605-.318 1.998-.966.394-.648.287-1.488-.111-2.41l-.151-.35-.377.053c-1.064.148-2.028.199-2.714.144l-.002-.106.639-.011h.01c.372-.008.734-.015 1.072-.015.496 0 .902-.194 1.172-.52.26-.314.36-.711.347-1.081-.027-.717-.527-1.556-1.522-1.564a13.905 13.905 0 00-1.161-.003c-.192.004-.375.007-.577.001v-.254c.5-.022.847-.007 1.3.013l.422.017h.004c.517.015.95-.164 1.252-.486.293-.313.429-.722.44-1.118.02-.78-.451-1.67-1.444-1.882l-.029-.006-3.783 10.045-.035.5h.002c1.31.092 2.06.092 3.248-.001zm0 0h-.001l-.038-.498.039.498s0 0 0 0zm-5.246-10.034l.5-.019-.003-.033-.497.052zm0 0l.02.5.027-.002c-.015-.169-.03-.335-.047-.498zm10.715-3.864l.223.077.057.02c.514.178.97.336 1.48.376.51.04 1.097-.04 1.835-.403l.26-.128.241.163c.662.447.99 1.071.835 1.73-.141.609-.657 1.068-1.258 1.324l-.004.001a6.476 6.476 0 01-2.1.467 4.807 4.807 0 01-.87-.032c.05.032.1.067.146.105.414.337.585.841.585 1.435 0 .085-.004.287-.01.56.098-.297.193-.577.278-.827l.001-.003c.195-.558.486-.985.95-1.253.444-.255.979-.324 1.57-.324.55 0 1.074.124 1.468.446.412.335.612.826.612 1.401v.017a73.24 73.24 0 00-.032 2.254c0 1.08.011 2.304.04 3.314.014.505.032.953.054 1.3.01.174.023.32.035.431a2.68 2.68 0 00.029.191l.06.21-.114.187c-.173.284-.485.506-.863.657-.388.154-.883.249-1.483.249-.728 0-1.281-.21-1.591-.728-.262-.437-.278-1.004-.279-1.49-.19.497-.434.98-.765 1.366-.413.485-.97.827-1.7.852 0 0 0 0 0 0l-.017-.5c-1.258.045-1.758-.439-1.806-1.892l2.133-11.553zm0 0l-.201.123c-.631.386-1.01.926-1.043 1.534-.033.6.278 1.14.755 1.512l.013.01.014.01c.06.04.122.077.187.111m.275-3.3l-.275 3.3m0 0a3.804 3.804 0 00-.31-.012c-.401 0-.916.115-1.293.213a12.82 12.82 0 00-.646.188l-.042.013-.011.004-.003.001h-.001 0l.158.475 2.148-.882zM5.98 41.21a2.88 2.88 0 01-.11.494v-.13c.002-.49-.01-1.063-.105-1.657h0l-.002-.012c-.107-.58-.392-.999-.804-1.256-.393-.245-.848-.31-1.253-.303-.805.013-1.61.312-1.898.432l-.345.142.039.37c.18 1.744.179 2.361.175 4.11v.85h0v.01c.005.305-.005.678-.015 1.075l-.01.379c-.012.516-.017 1.057.028 1.452v.003c.07.589.32 1.04.704 1.34.374.293.827.407 1.252.425.427.018.858-.058 1.228-.184.363-.123.714-.308.952-.542l.15-.147v-.21c0-.66-.012-1.895-.043-2.825.033.012.05.027.074.07.044.076.095.23.131.533.036.296.054.689.062 1.215.006.641.217 1.152.598 1.51.37.348.848.503 1.304.548.459.045.932-.016 1.346-.137.406-.119.8-.31 1.073-.56l.242-.223-.108-.31c-.113-.324-.16-.713-.183-1.145-.007-.138-.013-.287-.018-.438-.01-.288-.02-.588-.048-.844-.049-.542-.25-1.112-.709-1.56a2.46 2.46 0 00-.762-.501c.235-.255.449-.563.624-.897.426-.812.676-1.889.319-2.857h0l-.002-.005c-.157-.412-.408-.714-.733-.906a1.948 1.948 0 00-.986-.249c-.552-.004-1.136.166-1.535.282a19.66 19.66 0 01-.139.04l-.316.09-.043.325c-.041.308-.05.67-.06 1.013l-.002.092c-.01.386-.024.759-.072 1.098zm6.431 6.936c.958.744 2.134.819 3.004.796.81 0 1.978-.104 2.948-.844 1-.762 1.68-2.11 1.688-4.361v-.004c-.008-1.91-.464-3.297-1.31-4.208-.853-.917-2.025-1.27-3.285-1.27-1.329 0-2.52.386-3.373 1.319-.846.925-1.286 2.31-1.286 4.16 0 2.282.63 3.649 1.614 4.412zm2.707-4.507h0v-.01c0-1.014.14-1.521.261-1.758a.446.446 0 01.107-.15l.047-.002h.007l.002.002c.038.054.11.194.169.508.058.308.1.756.1 1.4 0 .846-.073 1.463-.195 1.852-.061.194-.124.295-.164.34a.161.161 0 01-.019.017.156.156 0 01-.04-.006h0c-.002-.001-.045-.032-.097-.167-.113-.29-.202-.882-.178-2.026zm.382-1.925l-.01.004c.007-.004.01-.005.01-.004zm35.799-.504c-.027.19-.064.354-.11.494v-.13c.002-.49-.01-1.063-.105-1.657h0l-.002-.012c-.107-.58-.392-.999-.804-1.256-.393-.245-.848-.31-1.253-.303-.805.013-1.61.312-1.898.432l-.345.142.039.37c.18 1.744.178 2.361.175 4.11v.85h0v.01c.005.305-.005.678-.015 1.074l-.01.38c-.012.516-.017 1.057.027 1.452v.003c.07.589.32 1.04.705 1.34.374.293.827.407 1.252.425.426.018.857-.058 1.228-.184.363-.123.714-.308.952-.542l.149-.147v-.21c0-.66-.01-1.895-.042-2.825.033.012.05.027.074.07.044.076.094.23.131.533.036.296.054.689.062 1.215.006.641.217 1.152.597 1.51.37.348.849.503 1.305.548.459.045.932-.016 1.346-.137.406-.119.8-.31 1.073-.56l.242-.223-.108-.31c-.113-.324-.16-.713-.183-1.145a23.76 23.76 0 01-.018-.438c-.01-.288-.021-.588-.048-.844-.049-.542-.25-1.112-.709-1.56a2.46 2.46 0 00-.762-.501c.235-.255.449-.563.624-.897.426-.812.676-1.889.319-2.857l-.002-.005c-.157-.412-.408-.714-.733-.906a1.948 1.948 0 00-.986-.249c-.552-.004-1.137.166-1.536.282l-.138.04-.316.09-.043.325a10.077 10.077 0 00-.062 1.105 9.78 9.78 0 01-.072 1.098zm14.12 6.836l.137-.212-.09-.236c-.165-.433-.176-.64-.208-1.251-.005-.097-.01-.205-.018-.325h0l-.038-.691c-.047-.863-.093-1.725-.19-2.525-.124-1.015-.335-1.987-.764-2.8l-.006-.013-.008-.013c-.778-1.29-2.154-1.718-3.464-1.704-1.306.014-2.65.464-3.546 1.063l-.207.138-.014.25c-.07 1.278-.223 2.177-.4 3.13l-.048.265c-.164.884-.343 1.847-.485 3.194-.064.608.02 1.147.247 1.59.23.449.593.77 1.03.955.86.365 1.95.192 2.924-.382l.247-.145v-.285c0-.13 0-.409.01-.68l.007-.178.101.002h.072l.208.004.008.067c.041.314.153.779.488 1.129.549.584 1.394.745 2.118.67.718-.076 1.495-.402 1.89-1.017zm-4.64-3.88c0 .043.003.086.004.128h-.02l.012-.2.002.033.001.04z" stroke="url(#hpaint34_linear)"/><path d="M24.422 48.91c.705 0 1.192-.133 1.54-.32a1.944 1.944 0 00.573-.469l.132-.137.007-.19c.035-.953-.005-2.705-.042-4.35l-.03-1.361c.176-.002.347-.006.51-.014.604-.019 1.102-.201 1.436-.586.328-.377.425-.863.415-1.33m-4.541 8.758h-.005v-.5l.01.5h-.005zm0 0c-.413.008-.774-.053-1.076-.206a1.489 1.489 0 01-.671-.674 2.51 2.51 0 01-.23-.849 8.972 8.972 0 01-.044-.883c-.039-2.396-.036-3.477-.033-4.26-.983-.018-1.756-.284-2.128-.994-.34-.648-.242-1.503-.016-2.398l.104-.409.42.033c.166.013.292.014 2.747-.002H26.56c.613 0 1.196.135 1.642.446.465.324.749.82.76 1.437m0 0s0 0 0 0l-.5.01.5-.01s0 0 0 0zm5.648 8.727c.836-.064 1.605-.318 1.998-.966.394-.648.287-1.488-.111-2.41l-.151-.35-.377.053c-1.064.148-2.028.199-2.714.144l-.002-.106.639-.011h.01c.372-.008.734-.015 1.072-.015.496 0 .902-.194 1.172-.52.26-.314.36-.711.347-1.081-.027-.717-.527-1.556-1.522-1.564a13.905 13.905 0 00-1.161-.003c-.192.004-.375.007-.577.001v-.254c.5-.022.847-.007 1.3.013l.422.017h.004c.517.015.95-.164 1.252-.486.293-.313.429-.722.44-1.118.02-.78-.451-1.67-1.444-1.882l-.029-.006-3.783 10.045-.035.5h.002c1.31.092 2.06.092 3.248-.001zm0 0h-.001l-.038-.498.039.498s0 0 0 0zm-5.246-10.034l.5-.019-.003-.033-.497.052zm0 0l.02.5.027-.002c-.015-.169-.03-.335-.047-.498zm10.715-3.864l.223.077.057.02c.514.178.97.336 1.48.376.51.04 1.097-.04 1.835-.403l.26-.128.241.163c.662.447.99 1.071.835 1.73-.141.609-.657 1.068-1.258 1.324l-.004.001a6.476 6.476 0 01-2.1.467 4.807 4.807 0 01-.87-.032c.05.032.1.067.146.105.414.337.585.841.585 1.435 0 .085-.004.287-.01.56.098-.297.193-.577.278-.827l.001-.003c.195-.558.486-.985.95-1.253.444-.255.979-.324 1.57-.324.55 0 1.074.124 1.468.446.412.335.612.826.612 1.401v.017a73.24 73.24 0 00-.032 2.254c0 1.08.011 2.304.04 3.314.014.505.032.953.054 1.3.01.174.023.32.035.431a2.68 2.68 0 00.029.191l.06.21-.114.187c-.173.284-.485.506-.863.657-.388.154-.883.249-1.483.249-.728 0-1.281-.21-1.591-.728-.262-.437-.278-1.004-.279-1.49-.19.497-.434.98-.765 1.366-.413.485-.97.827-1.7.852 0 0 0 0 0 0l-.017-.5c-1.258.045-1.758-.439-1.806-1.892l2.133-11.553zm0 0l-.201.123c-.631.386-1.01.926-1.043 1.534-.033.6.278 1.14.755 1.512l.013.01.014.01c.06.04.122.077.187.111m.275-3.3l-.275 3.3m0 0a3.804 3.804 0 00-.31-.012c-.401 0-.916.115-1.293.213a12.82 12.82 0 00-.646.188l-.042.013-.011.004-.003.001h-.001 0l.158.475 2.148-.882zM5.98 41.21a2.88 2.88 0 01-.11.494v-.13c.002-.49-.01-1.063-.105-1.657h0l-.002-.012c-.107-.58-.392-.999-.804-1.256-.393-.245-.848-.31-1.253-.303-.805.013-1.61.312-1.898.432l-.345.142.039.37c.18 1.744.179 2.361.175 4.11v.85h0v.01c.005.305-.005.678-.015 1.075l-.01.379c-.012.516-.017 1.057.028 1.452v.003c.07.589.32 1.04.704 1.34.374.293.827.407 1.252.425.427.018.858-.058 1.228-.184.363-.123.714-.308.952-.542l.15-.147v-.21c0-.66-.012-1.895-.043-2.825.033.012.05.027.074.07.044.076.095.23.131.533.036.296.054.689.062 1.215.006.641.217 1.152.598 1.51.37.348.848.503 1.304.548.459.045.932-.016 1.346-.137.406-.119.8-.31 1.073-.56l.242-.223-.108-.31c-.113-.324-.16-.713-.183-1.145-.007-.138-.013-.287-.018-.438-.01-.288-.02-.588-.048-.844-.049-.542-.25-1.112-.709-1.56a2.46 2.46 0 00-.762-.501c.235-.255.449-.563.624-.897.426-.812.676-1.889.319-2.857h0l-.002-.005c-.157-.412-.408-.714-.733-.906a1.948 1.948 0 00-.986-.249c-.552-.004-1.136.166-1.535.282a19.66 19.66 0 01-.139.04l-.316.09-.043.325c-.041.308-.05.67-.06 1.013l-.002.092c-.01.386-.024.759-.072 1.098zm6.431 6.936c.958.744 2.134.819 3.004.796.81 0 1.978-.104 2.948-.844 1-.762 1.68-2.11 1.688-4.361v-.004c-.008-1.91-.464-3.297-1.31-4.208-.853-.917-2.025-1.27-3.285-1.27-1.329 0-2.52.386-3.373 1.319-.846.925-1.286 2.31-1.286 4.16 0 2.282.63 3.649 1.614 4.412zm2.707-4.507h0v-.01c0-1.014.14-1.521.261-1.758a.446.446 0 01.107-.15l.047-.002h.007l.002.002c.038.054.11.194.169.508.058.308.1.756.1 1.4 0 .846-.073 1.463-.195 1.852-.061.194-.124.295-.164.34a.161.161 0 01-.019.017.156.156 0 01-.04-.006h0c-.002-.001-.045-.032-.097-.167-.113-.29-.202-.882-.178-2.026zm.382-1.925l-.01.004c.007-.004.01-.005.01-.004zm35.799-.504c-.027.19-.064.354-.11.494v-.13c.002-.49-.01-1.063-.105-1.657h0l-.002-.012c-.107-.58-.392-.999-.804-1.256-.393-.245-.848-.31-1.253-.303-.805.013-1.61.312-1.898.432l-.345.142.039.37c.18 1.744.178 2.361.175 4.11v.85h0v.01c.005.305-.005.678-.015 1.074l-.01.38c-.012.516-.017 1.057.027 1.452v.003c.07.589.32 1.04.705 1.34.374.293.827.407 1.252.425.426.018.857-.058 1.228-.184.363-.123.714-.308.952-.542l.149-.147v-.21c0-.66-.01-1.895-.042-2.825.033.012.05.027.074.07.044.076.094.23.131.533.036.296.054.689.062 1.215.006.641.217 1.152.597 1.51.37.348.849.503 1.305.548.459.045.932-.016 1.346-.137.406-.119.8-.31 1.073-.56l.242-.223-.108-.31c-.113-.324-.16-.713-.183-1.145a23.76 23.76 0 01-.018-.438c-.01-.288-.021-.588-.048-.844-.049-.542-.25-1.112-.709-1.56a2.46 2.46 0 00-.762-.501c.235-.255.449-.563.624-.897.426-.812.676-1.889.319-2.857l-.002-.005c-.157-.412-.408-.714-.733-.906a1.948 1.948 0 00-.986-.249c-.552-.004-1.137.166-1.536.282l-.138.04-.316.09-.043.325a10.077 10.077 0 00-.062 1.105 9.78 9.78 0 01-.072 1.098zm14.12 6.836l.137-.212-.09-.236c-.165-.433-.176-.64-.208-1.251-.005-.097-.01-.205-.018-.325h0l-.038-.691c-.047-.863-.093-1.725-.19-2.525-.124-1.015-.335-1.987-.764-2.8l-.006-.013-.008-.013c-.778-1.29-2.154-1.718-3.464-1.704-1.306.014-2.65.464-3.546 1.063l-.207.138-.014.25c-.07 1.278-.223 2.177-.4 3.13l-.048.265c-.164.884-.343 1.847-.485 3.194-.064.608.02 1.147.247 1.59.23.449.593.77 1.03.955.86.365 1.95.192 2.924-.382l.247-.145v-.285c0-.13 0-.409.01-.68l.007-.178.101.002h.072l.208.004.008.067c.041.314.153.779.488 1.129.549.584 1.394.745 2.118.67.718-.076 1.495-.402 1.89-1.017zm-4.64-3.88c0 .043.003.086.004.128h-.02l.012-.2.002.033.001.04z" stroke="url(#hpaint35_linear)"/><defs><linearGradient id="hpaint0_linear" x1="45.5" y1="0" x2="45.5" y2="17.747" gradientUnits="userSpaceOnUse"><stop stop-color="#fff"/><stop offset="1" stop-color="#fff" stop-opacity="0"/></linearGradient><linearGradient id="hpaint1_linear" x1="45.5" y1="0" x2="45.5" y2="17.747" gradientUnits="userSpaceOnUse"><stop stop-color="#fff"/><stop offset="1" stop-color="#fff" stop-opacity="0"/></linearGradient><linearGradient id="hpaint2_linear" x1="45.5" y1="0" x2="45.5" y2="17.747" gradientUnits="userSpaceOnUse"><stop stop-color="#fff"/><stop offset="1" stop-color="#fff" stop-opacity="0"/></linearGradient><linearGradient id="hpaint3_linear" x1="45.5" y1="0" x2="45.5" y2="17.747" gradientUnits="userSpaceOnUse"><stop stop-color="#fff"/><stop offset="1" stop-color="#fff" stop-opacity="0"/></linearGradient><linearGradient id="hpaint4_linear" x1="34" y1="3.732" x2="34" y2="32.696" gradientUnits="userSpaceOnUse"><stop stop-color="#fff"/><stop offset="1" stop-color="#fff" stop-opacity="0"/></linearGradient><linearGradient id="hpaint5_linear" x1="34" y1="3.732" x2="34" y2="32.696" gradientUnits="userSpaceOnUse"><stop stop-color="#fff"/><stop offset="1" stop-color="#fff" stop-opacity="0"/></linearGradient><linearGradient id="hpaint6_linear" x1="34" y1="3.732" x2="34" y2="32.696" gradientUnits="userSpaceOnUse"><stop stop-color="#fff"/><stop offset="1" stop-color="#fff" stop-opacity="0"/></linearGradient><linearGradient id="hpaint7_linear" x1="34" y1="3.732" x2="34" y2="32.696" gradientUnits="userSpaceOnUse"><stop stop-color="#fff"/><stop offset="1" stop-color="#fff" stop-opacity="0"/></linearGradient><linearGradient id="hpaint8_linear" x1="27.655" y1="0" x2="27.655" y2="32.695" gradientUnits="userSpaceOnUse"><stop stop-color="#fff"/><stop offset="1" stop-color="#fff" stop-opacity="0"/></linearGradient><linearGradient id="hpaint9_linear" x1="27.655" y1="0" x2="27.655" y2="32.695" gradientUnits="userSpaceOnUse"><stop stop-color="#fff"/><stop offset="1" stop-color="#fff" stop-opacity="0"/></linearGradient><linearGradient id="hpaint10_linear" x1="27.655" y1="0" x2="27.655" y2="32.695" gradientUnits="userSpaceOnUse"><stop stop-color="#fff"/><stop offset="1" stop-color="#fff" stop-opacity="0"/></linearGradient><linearGradient id="hpaint11_linear" x1="27.655" y1="0" x2="27.655" y2="32.695" gradientUnits="userSpaceOnUse"><stop stop-color="#fff"/><stop offset="1" stop-color="#fff" stop-opacity="0"/></linearGradient><linearGradient id="hpaint12_linear" x1="30.5" y1="21.484" x2="30.5" y2="27.09" gradientUnits="userSpaceOnUse"><stop stop-color="#fff"/><stop offset="1" stop-color="#fff" stop-opacity="0"/></linearGradient><linearGradient id="hpaint13_linear" x1="30.5" y1="21.484" x2="30.5" y2="27.09" gradientUnits="userSpaceOnUse"><stop stop-color="#fff"/><stop offset="1" stop-color="#fff" stop-opacity="0"/></linearGradient><linearGradient id="hpaint14_linear" x1="30.5" y1="21.484" x2="30.5" y2="27.09" gradientUnits="userSpaceOnUse"><stop stop-color="#fff"/><stop offset="1" stop-color="#fff" stop-opacity="0"/></linearGradient><linearGradient id="hpaint15_linear" x1="30.5" y1="21.484" x2="30.5" y2="27.09" gradientUnits="userSpaceOnUse"><stop stop-color="#fff"/><stop offset="1" stop-color="#fff" stop-opacity="0"/></linearGradient><linearGradient id="hpaint16_linear" x1="37.5" y1="21.484" x2="37.5" y2="27.09" gradientUnits="userSpaceOnUse"><stop stop-color="#fff"/><stop offset="1" stop-color="#fff" stop-opacity="0"/></linearGradient><linearGradient id="hpaint17_linear" x1="37.5" y1="21.484" x2="37.5" y2="27.09" gradientUnits="userSpaceOnUse"><stop stop-color="#fff"/><stop offset="1" stop-color="#fff" stop-opacity="0"/></linearGradient><linearGradient id="hpaint18_linear" x1="37.5" y1="21.484" x2="37.5" y2="27.09" gradientUnits="userSpaceOnUse"><stop stop-color="#fff"/><stop offset="1" stop-color="#fff" stop-opacity="0"/></linearGradient><linearGradient id="hpaint19_linear" x1="37.5" y1="21.484" x2="37.5" y2="27.09" gradientUnits="userSpaceOnUse"><stop stop-color="#fff"/><stop offset="1" stop-color="#fff" stop-opacity="0"/></linearGradient><linearGradient id="hpaint20_linear" x1="34" y1="20.55" x2="34" y2="24.287" gradientUnits="userSpaceOnUse"><stop stop-color="#fff"/><stop offset="1" stop-color="#fff" stop-opacity="0"/></linearGradient><linearGradient id="hpaint21_linear" x1="34" y1="20.55" x2="34" y2="24.287" gradientUnits="userSpaceOnUse"><stop stop-color="#fff"/><stop offset="1" stop-color="#fff" stop-opacity="0"/></linearGradient><linearGradient id="hpaint22_linear" x1="34" y1="20.55" x2="34" y2="24.287" gradientUnits="userSpaceOnUse"><stop stop-color="#fff"/><stop offset="1" stop-color="#fff" stop-opacity="0"/></linearGradient><linearGradient id="hpaint23_linear" x1="34" y1="20.55" x2="34" y2="24.287" gradientUnits="userSpaceOnUse"><stop stop-color="#fff"/><stop offset="1" stop-color="#fff" stop-opacity="0"/></linearGradient><linearGradient id="hpaint24_linear" x1="28" y1="15.878" x2="28" y2="18.681" gradientUnits="userSpaceOnUse"><stop stop-color="#fff"/><stop offset="1" stop-color="#fff" stop-opacity="0"/></linearGradient><linearGradient id="hpaint25_linear" x1="28" y1="15.878" x2="28" y2="18.681" gradientUnits="userSpaceOnUse"><stop stop-color="#fff"/><stop offset="1" stop-color="#fff" stop-opacity="0"/></linearGradient><linearGradient id="hpaint26_linear" x1="28" y1="15.878" x2="28" y2="18.681" gradientUnits="userSpaceOnUse"><stop stop-color="#fff"/><stop offset="1" stop-color="#fff" stop-opacity="0"/></linearGradient><linearGradient id="hpaint27_linear" x1="28" y1="15.878" x2="28" y2="18.681" gradientUnits="userSpaceOnUse"><stop stop-color="#fff"/><stop offset="1" stop-color="#fff" stop-opacity="0"/></linearGradient><linearGradient id="hpaint28_linear" x1="40" y1="15.878" x2="40" y2="18.681" gradientUnits="userSpaceOnUse"><stop stop-color="#fff"/><stop offset="1" stop-color="#fff" stop-opacity="0"/></linearGradient><linearGradient id="hpaint29_linear" x1="40" y1="15.878" x2="40" y2="18.681" gradientUnits="userSpaceOnUse"><stop stop-color="#fff"/><stop offset="1" stop-color="#fff" stop-opacity="0"/></linearGradient><linearGradient id="hpaint30_linear" x1="40" y1="15.878" x2="40" y2="18.681" gradientUnits="userSpaceOnUse"><stop stop-color="#fff"/><stop offset="1" stop-color="#fff" stop-opacity="0"/></linearGradient><linearGradient id="hpaint31_linear" x1="40" y1="15.878" x2="40" y2="18.681" gradientUnits="userSpaceOnUse"><stop stop-color="#fff"/><stop offset="1" stop-color="#fff" stop-opacity="0"/></linearGradient><linearGradient id="hpaint32_linear" x1="33.5" y1="35.5" x2="33.5" y2="48.579" gradientUnits="userSpaceOnUse"><stop stop-color="#fff"/><stop offset="1" stop-color="#fff" stop-opacity="0"/></linearGradient><linearGradient id="hpaint33_linear" x1="33.5" y1="35.5" x2="33.5" y2="48.579" gradientUnits="userSpaceOnUse"><stop stop-color="#fff"/><stop offset="1" stop-color="#fff" stop-opacity="0"/></linearGradient><linearGradient id="hpaint34_linear" x1="33.5" y1="35.5" x2="33.5" y2="48.579" gradientUnits="userSpaceOnUse"><stop stop-color="#fff"/><stop offset="1" stop-color="#fff" stop-opacity="0"/></linearGradient><linearGradient id="hpaint35_linear" x1="33.5" y1="35.5" x2="33.5" y2="48.579" gradientUnits="userSpaceOnUse"><stop stop-color="#fff"/><stop offset="1" stop-color="#fff" stop-opacity="0"/></linearGradient></defs></symbol><symbol fill="none" viewBox="0 0 21 18" id="paw-svg" xmlns="http://www.w3.org/2000/svg"><path fill="currentColor" d="M16.5 6.9c-2.9 1.6-2.5 6.2.6 6.3 1.3 0 2.4-1 3-2.2 1.2-2.9-1.2-5.4-3.6-4.1zm-2.9.5c3.3 0 4.4-5.6 1.3-6.6-1.5-.4-3.2.6-3.7 2.4-.6 2.1.5 4.2 2.4 4.2z"/><path fill="currentColor" d="M12.5 17.6c-.4-.2-1.2-.3-2.1-.3-1 0-1.9 0-2.5.2-1.7.4-4-.7-3.4-3 .5-2.2 2.1-2 2.6-4.1.4-2.1 2-3 3.5-3 1.3.1 2.7 1.1 3 3 .4 2.1 2 2 2.4 4.2.5 2.4-1.8 3.5-3.5 3zM7.7 7.3c1 0 1.7-.5 2.2-1.3 1.4-2.5-.8-6-3.3-5.3-3.2.8-2.3 6.6 1 6.6z"/><path fill="currentColor" d="M6 11.1c1.2-2.6-1.3-5.8-3.8-4.9-3 1.2-1.7 6.5 1.5 6.5 1 0 2-.6 2.4-1.6zm6.5 6.5c-.4-.2-1.2-.3-2.1-.3l.2-9.9c1.3.1 2.7 1.1 3 3 .4 2.1 2 2 2.4 4.2.5 2.4-1.8 3.5-3.5 3z"/></symbol></svg>